<svg viewBox="0 0 148.32 129.8" xmlns="http://www.w3.org/2000/svg"><path d="m117.92 67.09c0-.43.08-.78.09-1.06l.06-.84s0-.29 0-.86v-.48-.57-.68-.78c0-1.09 0-2.45-.14-4a51 51 0 0 0 -.67-5.44l-.14-.77c0-.26-.1-.52-.16-.79-.1-.53-.23-1.07-.35-1.63-.27-1.1-.59-2.25-1-3.44a49.78 49.78 0 0 0 -3-7.44 47.78 47.78 0 0 0 -4.92-7.74 49.08 49.08 0 0 0 -7.09-7.3 48.57 48.57 0 0 0 -4.28-3.27 49.53 49.53 0 0 0 -4.89-2.83 52.16 52.16 0 0 0 -11.11-4.17l-1.5-.35-.75-.16-.38-.07-.39-.08-.77-.14-.75-.12-.37-.08h-.09-.12-.2l-.78-.11a51.37 51.37 0 0 0 -6.37-.42 49.16 49.16 0 0 0 -5 .26.72.72 0 0 1 -.75-.52l-.79-3.21a1 1 0 0 1 .36-.93 3.89 3.89 0 0 0 1.5-2.56 3.93 3.93 0 1 0 -5.36 3.09.94.94 0 0 1 .59.79l.07 3.38a.75.75 0 0 1 -.58.73c-1 .22-2 .47-3.07.75a48.21 48.21 0 0 0 -23.2 14.55 46.5 46.5 0 0 0 -7.73 12.06c-.48 1.1-.92 2.23-1.32 3.37s-.74 2.31-1 3.49q-.23.87-.42 1.77l-.09.44-.09.46c-.05.3-.11.62-.16.91l-.14.85v.22.25l-.06.45c0 .29-.07.59-.11.89s-.07.6-.1.89a54.25 54.25 0 0 0 -.4 7.15 51 51 0 0 0 .76 7.19 45.77 45.77 0 0 0 13.24 24.86 47.48 47.48 0 0 0 5.28 4.47l.69.5.71.49.36.24.35.23.34.22.43.27.15.08a.76.76 0 0 1 .24.4l.09.32c.62 3.63 3.42 6.12 6.78 7.62 7.58 3.37 34.32 4.59 46.69-2.06 2.58-1.39 5.57-3.22 6-6.11l.34-2.33a1.77 1.77 0 0 1 .56-1 38 38 0 0 0 5.63-5.55 40.29 40.29 0 0 0 4.36-6.72c.57-1.11 1.07-2.19 1.51-3.24.23-.53.42-1 .62-1.55s.37-1 .53-1.5a46 46 0 0 0 1.43-5.29c.33-1.57.53-2.91.67-4 .07-.54.13-1.03.16-1.45zm-33.4 34.45s0 0 0 0h.09a.31.31 0 0 1 -.09 0zm-32.52-21.78c.21-10.76 14.53-16.25 21.75-17.67a.27.27 0 0 0 -.06-.54 22.09 22.09 0 0 0 -3 .37c-.3 0-.44-.07-.49-.22-.11-.31.14-.83.26-1.15a11.16 11.16 0 0 0 .54-4.69c-.37-5.53-2.82-7.41-4.4-7.22-1.38.16-2.89 3.67-2.9 7.33a1.13 1.13 0 0 0 .55.9l1 .53a.47.47 0 0 1 .15.75l-.8.94a1.12 1.12 0 0 0 -.18 1 5.88 5.88 0 0 0 1.31 2c.26.27.73.9 0 1.16-4.36 1.57-8.14 3.72-10.13 4.33-2.44.75-4.11-1-4.94-2.19-6.1-9.52.93-26 13.51-27.42 7.69-.86 13.58 4 14.07 7.77 0 .26.47.35.49.08.23-2.53 2.16-6.3 8.31-6.22 10.17.16 11.73 12.32 9.26 19.4a1.76 1.76 0 0 1 -.29.57.15.15 0 0 0 0 .06c-.47 1.14-3.41 1.54-4.31.88-.27-.19-.14-.75 0-1.06a9.23 9.23 0 0 0 .52-4.85c-.51-3.1-2-5.42-3.38-5.2-1.18.19-2.17 3.18-2.09 6a1.1 1.1 0 0 0 .58.87l.51.24a.47.47 0 0 1 .18.74l-.41.54a1.2 1.2 0 0 0 -.18 1 5.82 5.82 0 0 0 .86 1.54c.21.26.52.57.66.71a.7.7 0 0 0 .53.22h.42.74a6.76 6.76 0 0 1 3.8 1.67 24 24 0 0 1 7.47 14.07 4 4 0 0 1 0 1.2 10.8 10.8 0 0 1 -5.45 7.13c-4.58 2.62-16.78 5.43-25.29.16-3.74-2.32-7-9.83-2.12-9.36.87.08 1-1.37.16-1.71a7 7 0 0 0 -5.44.6c-1.87 1.06-2.85 2.1-3 3.68-.09.79 1.11 1.37 1.43.64.51-1.2 2.78-3.23 2.87-1.38.16 3.07 2.67 7.3 5.56 9.43 8.27 6.11 24.47 5.72 30.67-2.67l.13-.17c.07-.1 0 .08-.07.4-1.61 4.42-6.3 11.36-19.16 14-25.02 2.69-30.26-9.54-30.2-19.19zm44.46-19.51.12-.21zm18.54 12.45-.13.59c-.09.41-.19.82-.3 1.24 0 .21-.11.43-.17.64s-.12.44-.19.67c-.14.44-.27.9-.43 1.36s-.33.94-.51 1.43-.38 1-.6 1.47c-.43 1-.91 2-1.48 3.06a36.72 36.72 0 0 1 -4.32 6.27 35.82 35.82 0 0 1 -6.37 5.8 33.3 33.3 0 0 1 -3.32 2.08c-.29.16-.8.14-.89-.19a2.89 2.89 0 0 1 .44-1.75 4.83 4.83 0 0 1 .76-.93c4.33-4.09 6.85-9.29 6.76-14.76a22.48 22.48 0 0 0 -3.75-11.06.56.56 0 0 1 .19-.8c3.88-2.53 3.86-12.68-1.32-14.13a.72.72 0 0 1 -.53-.73 16.58 16.58 0 0 0 0-2.24c-.32-6.09-1.38-12.53-4.95-16.65a19.58 19.58 0 0 0 -6.57-4.5c-.31-.13-.33-.31 0-.41l.52-.16a.28.28 0 0 0 0-.52c-8.64-3.85-19.38-2.23-22-1.75a.27.27 0 0 1 -.28-.43 5 5 0 0 1 .52-.62.28.28 0 0 0 -.25-.47 50.27 50.27 0 0 0 -10.06 3.42.28.28 0 0 1 -.34-.42l1.19-1.72a.29.29 0 0 0 -.29-.44 18.88 18.88 0 0 0 -10.62 7.36.28.28 0 0 1 -.51-.13 16.94 16.94 0 0 1 .1-3.42.28.28 0 0 0 -.44-.26c-4.59 3-5.59 8.83-5.78 10.38a.28.28 0 0 1 -.52.12 9.08 9.08 0 0 1 -.78-2.41.28.28 0 0 0 -.52-.08c-1.56 2.6-.89 6.36-.55 7.8a4.19 4.19 0 0 1 .14.7c0 .06-.17-.11-.43-.32a2.24 2.24 0 0 0 -.82-.44.18.18 0 0 0 -.22.21c.32 1.1 2 3.16 2.9 6.78.08.33.16.66.23 1 .91 4 1.36 6.9 1.53 8.11.05.33-.17.5-.49.39-2.1-.7-9.33-2.4-10.11 6.92-1.14 13.68 9.67 15 14.2 8.41a.55.55 0 0 1 1 .31 29.78 29.78 0 0 0 2.49 12.15 19.36 19.36 0 0 0 5.75 7.19 3.68 3.68 0 0 1 1.12 1.61c.08.33-.26.55-.58.48l-.67-.14c-1-.23-2-.47-3-.74s-2-.57-2.9-.92a14.56 14.56 0 0 1 -2.57-1.19 2.2 2.2 0 0 1 -.25-.17l-.34-.23a3.88 3.88 0 0 1 -.33-.23l-.36-.22c-.21-.14-.42-.3-.63-.45l-.63-.48a45.27 45.27 0 0 1 -4.69-4.14 41.8 41.8 0 0 1 -7.4-10.33 43.17 43.17 0 0 1 -4-12.25 48.69 48.69 0 0 1 -.39-13c0-.27.05-.55.08-.82s.06-.55.1-.82l.05-.41v-.17-.21l.13-.85c0-.28.09-.53.14-.79l.07-.39.08-.4c.1-.53.23-1.06.35-1.59.26-1.05.55-2.09.88-3.13s.7-2 1.11-3a42 42 0 0 1 16.27-19.67 44.23 44.23 0 0 1 11.37-5.26 44.92 44.92 0 0 1 12.01-1.91 46.34 46.34 0 0 1 5.91.27l.73.09h.18.17l.37.06.74.1.71.12.35.06.36.07.71.13 1.41.3a48.88 48.88 0 0 1 10.46 3.8 46.78 46.78 0 0 1 8.8 5.54 45.76 45.76 0 0 1 6.81 6.74 46.29 46.29 0 0 1 4.8 7.21 46.9 46.9 0 0 1 3 7c.38 1.12.7 2.21 1 3.26.12.53.26 1 .37 1.55 0 .25.11.5.16.75l.15.73c.37 1.93.58 3.68.72 5.2s.17 2.83.19 3.89v.74.66 1 .83s0 .33 0 .83c0 .28 0 .61-.07 1s-.08.86-.13 1.39c-.13 1-.3 2.33-.6 3.83zm-74.79-.83c.18 0 .35.26.37.6.06 1.39-.06 4.69-2.54 4.78-6.5.23-6.37-13-.53-12.45 2.31.21 2.84 3.24 3 4.56a1.89 1.89 0 0 1 -.32 1.1l-.58.83a.37.37 0 0 0 .3.58z" fill="#30302f"/><path d="m79.85 66.47c.45-.11.93-.21 1.41-.31 2-.3 2.43.41 2.52.72a.7.7 0 0 0 .52.5.62.62 0 0 0 .24 0 .81.81 0 0 0 .7-.37s.48-1 1.21-1.09a4.72 4.72 0 0 1 1.58.29c.64.14 1-.79.47-1.2a7 7 0 0 0 -4.18-1.26 9.63 9.63 0 0 0 -5.24 1.25c-.92.49-.28 1.73.77 1.47z" fill="#30302f"/><path d="m63.68 71a.63.63 0 0 0 .65-.58.61.61 0 0 0 -.54-.68c-.33 0-.63.36-.66.71s.22.55.55.55z" fill="#30302f"/><path d="m60.72 71.81c-.15-.15-.47-.07-.63.09a.33.33 0 0 0 0 .5.42.42 0 0 0 .59-.59z" fill="#30302f"/><path d="m62.71 73c.11.11.31 0 .43-.09a.3.3 0 0 0 0-.42c-.11-.12-.35-.06-.47.06a.34.34 0 0 0 .04.45z" fill="#30302f"/><path d="m95 66.48a.34.34 0 0 0 .22-.25.18.18 0 0 0 0-.16.28.28 0 0 0 -.35.05.25.25 0 0 0 0 .33.15.15 0 0 0 .13.03z" fill="#30302f"/><path d="m92.6 65.5c.11.11.3 0 .42-.09a.29.29 0 0 0 -.02-.41c-.11-.12-.34-.06-.47.06a.34.34 0 0 0 .07.44z" fill="#30302f"/><g fill="#f7f5ef"><path d="m8.41 125a4.8 4.8 0 0 1 -1.18 3.26 4.49 4.49 0 0 1 -3 1.52 3.68 3.68 0 0 1 -3-.93 3.92 3.92 0 0 1 -1.18-3 1.24 1.24 0 0 1 1.25-1.38c.84-.08 1.26.3 1.26 1.13 0 1.24.56 1.81 1.67 1.7h.05c1.11-.11 1.67-.78 1.67-2v-3.61c0-.52-.14-.78-.44-.8l-2.51.18a2.54 2.54 0 0 1 -2.2-.77 3.29 3.29 0 0 1 -.8-2.3v-3.24a4.78 4.78 0 0 1 1.18-3.27 4.46 4.46 0 0 1 3-1.53 3.69 3.69 0 0 1 3 .93 4 4 0 0 1 1.18 3 1.24 1.24 0 0 1 -1.25 1.38c-.84.08-1.26-.29-1.26-1.13 0-1.23-.57-1.8-1.7-1.71l-.27.06a1.8 1.8 0 0 0 -1.42 2v3.24c0 .51.15.78.46.8l2.41-.23a2.54 2.54 0 0 1 2.23.79 3.26 3.26 0 0 1 .8 2.27z"/><path d="m19.07 109.76a1.23 1.23 0 0 1 -1.25 1.37l-1.71.17v16a1.23 1.23 0 0 1 -1.25 1.38c-.84.08-1.25-.29-1.25-1.13v-16l-1.69.16c-.84.09-1.26-.29-1.26-1.13a1.24 1.24 0 0 1 1.26-1.37l5.9-.58c.83-.09 1.25.29 1.25 1.13z"/><path d="m29.72 110.82v5.73a4.88 4.88 0 0 1 -1.16 3.22 4 4 0 0 1 1.16 3v3.23a1.24 1.24 0 0 1 -1.25 1.38c-.84.08-1.26-.29-1.26-1.13v-3.25c0-1.21-.53-1.78-1.59-1.72h-.11l-1.69.16v5.09a1.24 1.24 0 0 1 -1.26 1.47c-.83.09-1.25-.29-1.25-1.13v-15.22a3.88 3.88 0 0 1 .8-2.43 3.08 3.08 0 0 1 2.22-1.22l2.36-.24a2.54 2.54 0 0 1 2.23.8 3.24 3.24 0 0 1 .8 2.26zm-2.51.25c0-.57-.14-.83-.43-.8l-2.5.24c-.31 0-.46.33-.46.9v7.59l1.76-.17c1.09-.1 1.63-.77 1.63-2z"/><path d="m40.54 107.64a1.24 1.24 0 0 1 -1.26 1.36l-3 .3c-.29 0-.44.33-.44.89v7.6l3.48-.34c.84-.08 1.26.3 1.26 1.13a1.24 1.24 0 0 1 -1.3 1.42l-3.48.34v3c0 .56.16.83.47.8l3-.3c.84-.08 1.26.29 1.26 1.13a1.24 1.24 0 0 1 -1.26 1.38l-3 .29a2.46 2.46 0 0 1 -2.21-.8 3.23 3.23 0 0 1 -.79-2.26v-13.11a3.86 3.86 0 0 1 .8-2.43 3.06 3.06 0 0 1 2.21-1.23l3-.3c.84-.08 1.26.3 1.26 1.13z"/><path d="m52 123.82a1.24 1.24 0 0 1 -1.26 1.37c-.83.09-1.25-.29-1.25-1.13v-5.06l-3.4.33v5.09a1.23 1.23 0 0 1 -1.25 1.37c-.84.09-1.25-.29-1.25-1.13v-14.18a4.81 4.81 0 0 1 1.17-3.25 4.4 4.4 0 0 1 3-1.55 3.65 3.65 0 0 1 3.05.95 4 4 0 0 1 1.17 3zm-2.51-7.35v-6.58c0-1.24-.57-1.81-1.71-1.7a1.77 1.77 0 0 0 -1.69 2v6.58z"/><path d="m69.83 122.06a1.23 1.23 0 0 1 -1.25 1.37c-.84.09-1.27-.29-1.27-1.13v-14.17c0-1.24-.56-1.81-1.69-1.7a1.77 1.77 0 0 0 -1.69 2v14.17a1.23 1.23 0 0 1 -1.25 1.4c-.84.09-1.25-.29-1.25-1.13v-14.16c0-1.24-.57-1.81-1.71-1.7s-1.69.79-1.69 2v14.17a1.23 1.23 0 0 1 -1.25 1.37c-.84.09-1.26-.29-1.26-1.13v-14.12a4.81 4.81 0 0 1 1.17-3.25 4.4 4.4 0 0 1 3-1.55 3.68 3.68 0 0 1 3 .87 4.46 4.46 0 0 1 2.94-1.45 3.65 3.65 0 0 1 3 1 4 4 0 0 1 1.16 3z"/><path d="m90.14 120.06a1.24 1.24 0 0 1 -1.26 1.37c-.84.09-1.26-.29-1.26-1.12v-14.17c0-1.25-.57-1.82-1.7-1.71a1.77 1.77 0 0 0 -1.69 2v14.17a1.23 1.23 0 0 1 -1.23 1.4c-.83.09-1.25-.29-1.25-1.13v-14.15q0-1.87-1.71-1.71a1.77 1.77 0 0 0 -1.69 2v14.17a1.24 1.24 0 0 1 -1.25 1.38c-.84.08-1.25-.3-1.25-1.13v-14.13a4.85 4.85 0 0 1 1.15-3.25 4.4 4.4 0 0 1 3-1.55 3.67 3.67 0 0 1 3 .87 4.46 4.46 0 0 1 2.94-1.45 3.65 3.65 0 0 1 3 1 4 4 0 0 1 1.17 3z"/><path d="m102.12 115.76a4.78 4.78 0 0 1 -1.12 3.24 4.48 4.48 0 0 1 -3.07 1.56 3.63 3.63 0 0 1 -3-1 4 4 0 0 1 -1.17-3v-11a4.81 4.81 0 0 1 1.17-3.25 4.4 4.4 0 0 1 3-1.55 3.63 3.63 0 0 1 3 1 4 4 0 0 1 1.17 3zm-2.5.25v-11.01c0-1.24-.57-1.81-1.71-1.7s-1.69.79-1.69 2v11.06c0 1.23.56 1.8 1.69 1.69a1.77 1.77 0 0 0 1.71-2.05z"/><path d="m114.11 117.7a1.23 1.23 0 0 1 -1.25 1.37c-.84.09-1.26-.29-1.26-1.13v-14.17c0-1.24-.57-1.81-1.7-1.7s-1.69.79-1.69 2v14.17a1.24 1.24 0 0 1 -1.26 1.37c-.83.09-1.25-.29-1.25-1.13v-17.25a1.24 1.24 0 0 1 1.3-1.38 1.09 1.09 0 0 1 1 .36 4.55 4.55 0 0 1 2-.65 3.63 3.63 0 0 1 3 1 4 4 0 0 1 1.17 3z"/><path d="m126.1 116.52a1.24 1.24 0 0 1 -1.26 1.37q-1.29.14-1.29-1.77c0-.22 0-.56 0-1s0-.83 0-1.06c0-1.54-.57-2.27-1.72-2.17l-1.65.16v5.09a1.23 1.23 0 0 1 -1.25 1.37c-.84.09-1.25-.29-1.25-1.13v-17.33a1.23 1.23 0 0 1 1.25-1.38c.84-.08 1.25.3 1.25 1.13v9.71l1.86-.19a1.51 1.51 0 0 0 1.16-.69 2.3 2.3 0 0 0 .38-1.32v-7.84a1.24 1.24 0 0 1 1.25-1.38c.84-.08 1.26.29 1.26 1.13v7.85a4.86 4.86 0 0 1 -1.16 3.21 3.92 3.92 0 0 1 1.16 3z"/><path d="m136.91 98.16a1.23 1.23 0 0 1 -1.25 1.37l-3 .3c-.29 0-.44.33-.44.89v7.61l3.48-.35c.84-.08 1.25.3 1.25 1.13a1.23 1.23 0 0 1 -1.25 1.38l-3.48.34v3c0 .56.16.83.47.8l3-.3c.84-.08 1.25.3 1.25 1.13a1.23 1.23 0 0 1 -1.25 1.38l-3 .29a2.49 2.49 0 0 1 -2.21-.79 3.29 3.29 0 0 1 -.79-2.26v-13.08a3.87 3.87 0 0 1 .81-2.43 3.1 3.1 0 0 1 2.21-1.23l3-.29c.79-.11 1.2.27 1.2 1.11z"/><path d="m148.32 104.88a5 5 0 0 1 -.79 2.75 4.39 4.39 0 0 1 -2.17 1.74v5.25a1.24 1.24 0 0 1 -1.25 1.38c-.84.08-1.25-.3-1.25-1.13v-5.26a3.31 3.31 0 0 1 -2.15-1.31 4.24 4.24 0 0 1 -.8-2.59v-7.85a1.24 1.24 0 0 1 1.26-1.38c.83-.08 1.25.3 1.25 1.13v7.85c0 1.24.56 1.8 1.69 1.69a1.77 1.77 0 0 0 1.71-2v-7.87a1.23 1.23 0 0 1 1.25-1.38c.83-.08 1.25.3 1.25 1.13z"/></g></svg>