<?xml version="1.0" encoding="utf-8"?>
<!-- Generator: Adobe Illustrator 23.0.2, SVG Export Plug-In . SVG Version: 6.00 Build 0)  -->
<svg version="1.1" id="Layer_1" xmlns="http://www.w3.org/2000/svg" xmlns:xlink="http://www.w3.org/1999/xlink" x="0px" y="0px"
	 viewBox="0 0 891.7 426" style="enable-background:new 0 0 891.7 426;" xml:space="preserve">
<style type="text/css">
	.st0{fill:#FFFFFF;}
	.st1{opacity:0.3;}
	.st2{fill:#86EFCA;}
	.st3{display:none;opacity:0.35;fill:#99FFCC;enable-background:new    ;}
	.st4{display:none;opacity:0.3;fill:#99FFCC;enable-background:new    ;}
	.st5{opacity:0.3;fill:#99FFCC;enable-background:new    ;}
	.st6{opacity:0.45;fill:#99FFCC;enable-background:new    ;}
	.st7{opacity:0.5;fill:#99FFCC;enable-background:new    ;}
	.st8{fill:#99FFCC;}
	.st9{display:none;opacity:0.5;fill:#99FFCC;enable-background:new    ;}
	.st10{fill:#8C6239;}
	.st11{fill:#B1F2EF;}
	.st12{fill:#F2D8AA;}
	.st13{fill:#E2BD6A;}
	.st14{fill:#AD8A44;}
	.st15{fill:#333959;}
	.st16{opacity:0.1;enable-background:new    ;}
	.st17{fill:#91B6F2;}
	.st18{opacity:0.3;enable-background:new    ;}
	.st19{fill:#F4B44D;stroke:#E98300;stroke-miterlimit:10;}
	.st20{fill:#E98300;stroke:#E98300;stroke-miterlimit:10;}
	.st21{opacity:0.1;stroke:#000000;stroke-miterlimit:10;enable-background:new    ;}
	.st22{opacity:0.3;fill:#D8BA88;enable-background:new    ;}
	.st23{fill:#2D8784;}
	.st24{fill:#A4C2FC;}
	.st25{fill:#759BD3;}
	.st26{fill:#92DD6B;}
	.st27{fill:#57CE6E;}
	.st28{fill:#66CCFF;}
	.st29{display:none;}
	.st30{display:inline;fill:#A67C52;}
	.st31{display:inline;}
	.st32{fill:#A67C52;}
	.st33{fill:#754C24;}
	.st34{fill:#13D695;}
</style>
<rect y="-35" class="st0" width="891.7" height="496.7"/>
<image style="display:none;overflow:visible;enable-background:new    ;" width="2688" height="1964" xlink:href="A8826165.jpeg"  transform="matrix(0.2605 0 0 0.2605 91.609 -45.7429)">
</image>
<g>
	<g class="st1">
		<g>
			<path class="st2" d="M448.5,169.4c2.1-5.5,11.7-8.1,16.6-9.8c3.7-1.3,7.6-2.6,10.5-5.4c3.5-3.3,4.9-8.1,8.3-11.4
				c4-4,9.2-4.2,14.1-6.4c1.2-0.5,0.5-2.2-0.6-2.3c-4.5-0.3-9.9,1.9-13.5,4.6c-5.4,4-6.8,11.2-12.4,14.9c-5.2,3.4-11.7,4.3-17.1,7.3
				c-3.2,1.7-8.4,4.2-7.2,8.5C447.4,170.1,448.3,170,448.5,169.4L448.5,169.4z"/>
		</g>
	</g>
	<g class="st1">
		<g>
			<path class="st2" d="M444.4,181.1c2.2,12,13.4,18.6,23.3,23.8c6.1,3.2,12,6.5,17.5,10.7c5.4,4.1,10.7,8.4,17.1,10.8
				c12.5,4.7,23-1,30.9-10.8c8.7-10.8,3.8-21.7,0.7-33.8c-2-7.6-2-14.8-1.8-22.6c0.1-6.4-0.4-13-3.8-18.6
				c-5.8-9.3-17.3-14.1-28-13.2c-10.8,0.9-20.6,7.1-26.5,16.1c-4,6.2-7,11-13.8,14.6c-4.9,2.6-10.2,4.8-13.7,9.3
				c-8,10.5-2.5,26,7.2,33.5c5.7,4.4,13.3,5.8,19.8,8.6c7.3,3.2,14.1,7.3,20.8,11.6c1.3,0.8,2.9-1.2,1.7-2.2
				c-8.2-6.5-17.8-11.3-27.6-14.9c-5.3-1.9-10.7-3.3-14.8-7.4c-4.5-4.4-8-11.1-7.9-17.5c0.1-13.3,12.7-15.3,21.3-21.7
				c3.5-2.6,5.7-6.1,7.9-9.8c3.3-5.4,7-9.8,12.5-13.1c9.9-5.8,22.4-5.9,31.8,1c11.3,8.3,8.9,20.9,9.2,33.2
				c0.3,11.5,6.7,22.1,6.7,33.5c0,6.4-4.7,11.7-9.1,15.9c-5.5,5.3-12,7.6-19.5,5.8c-12-2.9-21.1-13.4-31.8-18.9
				c-11.3-5.8-25.2-11.1-29.2-24.5C445.1,180.2,444.3,180.5,444.4,181.1L444.4,181.1z"/>
		</g>
	</g>
	<g class="st1">
		<g>
			<path class="st2" d="M525.4,133.3c3.8,6.4,6.6,12.2,7.5,19.8c0.9,7.6,0.4,15.2,1.1,22.8c0.7,6.9,2.9,13.1,5.2,19.6
				c2.5,7.1,3.7,14.9-0.9,21.4c-0.7,1,0.9,2.2,1.7,1.3c11.4-11.9-1.5-29.2-3-42.4c-1.5-13.4,1.6-33.7-10.5-43.4
				C525.9,132,525,132.5,525.4,133.3L525.4,133.3z"/>
		</g>
	</g>
	<g class="st1">
		<g>
			<path class="st2" d="M112.8,346.1c-2.3-30.3,32.1-44.3,49.2-63.3c8.2-9.1,13.2-20.1,12.5-32.5c-0.8-15.2-8.3-29-13.9-42.9
				c-11-27.2-17-61.1,2.1-86.4c17.4-22.9,49.4-25,75.1-17.5c14.2,4.1,27.8,10.6,42.6,12c12,1.1,23.6-1.9,34.5-6.5
				c21.4-9,42.6-25.8,67-24.3c13.7,0.8,26.5,8.7,33.5,20.5c8,13.6,7.1,30.2,6.6,45.4c-0.4,12.4-0.3,25.2,4.2,36.9
				c4.4,11.3,12.6,19,23.8,23.5c13.6,5.5,28,8,41.4,14.2c13,6.1,26.9,13.9,35.5,25.6c19.2,26.1-0.9,61-17,83.4
				c-4.7,6.6-10,12.9-15.3,19c-1.4,1.6,0.8,3.8,2.3,2.3c11-11,20.1-23.8,27.7-37.4c7.2-12.8,13.4-27,13.7-42
				c0.7-29.7-27-46.7-51.3-56.8c-7.4-3.1-14.9-5.4-22.6-7.6c-7.1-2-14.5-4-20.9-8c-13-8.2-17.2-23.3-18.1-37.8
				c-0.9-14.5,1.3-29.1-0.9-43.6c-2-13.3-8.3-25.2-19.4-33.1c-21.5-15.3-46.5-6.2-67.6,4.5c-11.6,5.9-23.1,12.3-35.6,15.9
				c-15.2,4.3-29.6,1.7-44.3-3.2c-13.7-4.5-27.1-9.3-41.6-10.1c-13-0.7-26.4,1.3-38,7.3c-25.2,13.1-33.9,42.6-30.5,69.2
				c1.9,15.3,7.4,29.7,13.4,43.8c6.6,15.3,14.3,32.7,8,49.4c-10.1,27.1-43.9,35.8-55.6,62.3c-2.5,5.6-3.5,11.5-2.8,17.6
				C111,347.3,112.9,347.3,112.8,346.1L112.8,346.1z"/>
		</g>
	</g>
	<g class="st1">
		<g>
			<path class="st2" d="M114.3,357.2c-0.5-14.6,2.1-29.2,8.5-42.4c6.3-13.1,16.1-22.3,26.4-32.3c8.9-8.6,15.6-18.4,16.8-31.1
				c1.3-14.1-3.4-28.1-7.4-41.4c-8.2-27.5-11.6-60.2,9.9-83c8.6-9.1,20.1-15.3,32.4-17.6c14.3-2.7,26.9,1,39.9,6.7
				c12.3,5.4,24,9.1,37.5,7.1c14.5-2.1,27.8-8.8,40.4-16C341.9,94,370,76.1,397.2,89.7c13.8,6.9,18.6,20.3,19.6,35
				c1.1,16.3,1.2,32.8,1.8,49.1c0.4,12.1,1.3,25.3,10,34.7c7.7,8.3,19.2,11.4,29.9,13.6c14.5,3.1,28.4,6.3,41.9,12.6
				c13.4,6.4,27.5,14.7,31.2,30.1c7.6,31.8-22.5,57.1-42.1,77.2c-5.8,6-11.5,12-17.2,18.1c-1.4,1.5,0.8,3.7,2.2,2.2
				c12.4-12.2,24.5-24.6,36.4-37.3c9.7-10.4,18.9-22,23-35.8c3.6-12.2,3.3-26.4-4.2-37.2c-7.8-11.3-21.5-18-33.8-23.1
				c-13.7-5.7-27.9-8-42.1-11.5c-14.8-3.7-26.8-10.9-30.2-26.7c-1.8-8.1-1.6-16.6-1.9-24.9c-0.3-8.5-0.6-17.1-0.9-25.6
				c-0.5-14.1,0.2-30-8.4-42c-14.6-20.5-43.6-19.1-64.3-10.3c-28.5,12-57,40-90.4,31.4c-13.8-3.6-25.7-12-40.1-13.6
				c-11.8-1.3-23.8,1.2-34.4,6.5c-24.2,12.2-35.3,37.9-34.3,64.2c0.5,15.1,5.3,29.3,9.5,43.7c4.4,15.4,8.3,32.8-0.3,47.6
				c-7.1,12.1-19.6,19.9-28,31c-8.5,11.1-14.2,24.4-16.5,38.2c-1.1,6.8-1.3,13.5-0.7,20.3C113,358,114.3,358.1,114.3,357.2
				L114.3,357.2z"/>
		</g>
	</g>
</g>
<path class="st3" d="M211.6,352.1c-1.1,1.5-2,3-2.7,4.6l-1.5-9.8c5.8-2,10.9-5.4,14.4-10c4-5.3,5.1-11.2,3.8-16.5
	c-6.8,1.8-12.9,5.5-16.9,10.8c-1.3,1.6-2.2,3.4-2.9,5.1l-1.5-9.7c5.9-1.9,11.3-5.4,14.9-10.2c4-5.3,5.1-11.2,3.8-16.5
	c-6.8,1.8-12.9,5.5-16.9,10.8c-1.5,1.9-2.5,3.9-3.3,6l-1.6-10.9c5.8-2,10.9-5.4,14.4-10c4-5.3,5.1-11.2,3.8-16.5
	c-6.8,1.8-12.9,5.5-16.9,10.8c-1.3,1.6-2.2,3.4-2.9,5.1l-1.9-12.4c5.8-2,10.9-5.4,14.4-10c4-5.3,5.1-11.2,3.8-16.5
	c-6.8,1.8-12.9,5.5-16.9,10.8c-1.3,1.6-2.2,3.4-2.9,5.1l-1.6-10.7c5.8-2,10.9-5.4,14.4-10c4-5.3,5.1-11.2,3.8-16.5
	c-6.8,1.8-12.9,5.5-16.9,10.8c-1.3,1.6-2.2,3.4-2.9,5.1l-1.5-10.2c5.8-2,11-5.4,14.5-10.1c4-5.3,5.1-11.2,3.8-16.5
	c-6.8,1.8-12.9,5.5-16.9,10.8c-3.4,4.4-4.7,9.3-4.2,13.9h0l0.2,1.5c-1.3-2.4-3.2-4.6-5.7-6.6c-5.2-4-12.1-5.9-19-5.8
	c0,5.5,2.6,10.9,7.8,14.9c5,3.8,11.4,5.8,18.1,5.8l1.5,10c0,0.8,0.1,1.6,0.3,2.4c-1.3-2.3-3.1-4.5-5.6-6.3c-5.2-4-12.1-5.9-19-5.8
	c0,5.5,2.6,10.9,7.8,14.9c5,3.8,11.4,5.8,18.1,5.8l1.6,10.4c0.1,1.3,0.2,2.5,0.5,3.7c0,0,0,0,0,0l0.1,0.4c-1.3-2.4-3.2-4.6-5.7-6.6
	c-5.2-4-12.1-5.9-19-5.8c0,5.5,2.6,10.9,7.8,14.9c5,3.8,11.4,5.8,18.1,5.8l1.6,10.7c0,0.8,0.1,1.7,0.3,2.5c-1.3-2.3-3.1-4.5-5.6-6.4
	c-5.2-4-12.1-5.9-19-5.8c0,5.5,2.6,10.9,7.8,14.9c5,3.8,11.4,5.8,18.1,5.8l2,13.5c-1.3-2.4-3.2-4.6-5.7-6.6c-5.2-4-12.1-5.9-19-5.8
	c0,5.5,2.6,10.9,7.8,14.9c5,3.8,11.4,5.8,18.1,5.8l1.3,8.4c0.1,1.3,0.2,2.5,0.5,3.7c0,0,0,0,0,0l0.1,1c-1.3-2.4-3.2-4.6-5.7-6.6
	c-5.2-4-12.1-5.9-19-5.8c0,5.5,2.6,10.9,7.8,14.9c5,3.8,11.4,5.8,18.1,5.8l1,6.4c-0.1,1.9,0.1,3.8,0.6,5.6c0.1,0,0.1,0,0.2,0
	l2.3,15.1l2.5-0.4l-2.3-15.5c5.9-2,11.2-5.4,14.7-10.1c4.1-5.4,5.1-11.4,3.6-16.8C221.9,343,215.7,346.8,211.6,352.1z"/>
<path class="st4" d="M294.4,334.1c-1.4,2.1-2.5,4.4-3.3,6.7l-2.6-16.5c7.6-1.4,14.2-5.4,18.6-11.9c5-7.4,6.1-16.7,3.9-25.8
	c-8.9,0.8-16.8,4.9-21.8,12.3c-1.6,2.3-2.7,4.8-3.6,7.4l-2.6-16.4c7.8-1.3,14.7-5.3,19.2-12c5-7.4,6.1-16.7,3.9-25.8
	c-8.9,0.8-16.8,4.9-21.8,12.3c-1.8,2.7-3.1,5.6-3.9,8.8l-2.9-18.4c7.6-1.4,14.2-5.4,18.6-11.9c5-7.4,6.1-16.7,3.9-25.8
	c-8.9,0.8-16.8,4.9-21.8,12.3c-1.6,2.3-2.7,4.8-3.6,7.4l-3.3-20.9c7.6-1.4,14.2-5.4,18.6-11.9c5-7.4,6.1-16.7,3.9-25.8
	c-8.9,0.8-16.8,4.9-21.8,12.3c-1.6,2.3-2.7,4.8-3.6,7.4l-2.9-18c7.6-1.4,14.2-5.4,18.6-11.9c5-7.4,6.1-16.7,3.9-25.8
	c-8.9,0.8-16.8,4.9-21.8,12.3c-1.6,2.3-2.7,4.8-3.6,7.4l-2.7-17.1c7.6-1.4,14.3-5.4,18.7-11.9c5-7.4,6.1-16.7,3.9-25.8
	c-8.9,0.8-16.8,4.9-21.8,12.3c-4.2,6.2-5.6,13.7-4.7,21.4h0l0.4,2.4c-1.9-4.4-4.6-8.6-8-12.5c-7.2-8.2-16.5-13.5-25.8-15.5
	c0.4,9.1,4.2,18.7,11.4,26.9c6.9,7.9,15.7,13,24.5,15.3l2.7,16.8c0.1,1.3,0.3,2.6,0.5,3.9c-1.9-4.2-4.5-8.3-7.8-12.1
	c-7.2-8.2-16.5-13.5-25.8-15.5c0.4,9.1,4.2,18.7,11.4,26.9c6.9,7.9,15.7,13,24.5,15.3l2.8,17.6c0.1,2.1,0.5,4.2,1,6.3c0,0,0,0,0,0
	l0.1,0.6c-1.9-4.4-4.6-8.6-8-12.5c-7.2-8.2-16.5-13.5-25.8-15.5c0.4,9.1,4.2,18.7,11.4,26.9c6.9,7.9,15.7,13,24.5,15.2l2.8,18
	c0.1,1.4,0.3,2.8,0.5,4.2c-1.9-4.2-4.5-8.3-7.8-12.1c-7.2-8.2-16.5-13.5-25.8-15.5c0.4,9.1,4.2,18.7,11.4,26.9
	c6.9,7.9,15.7,13,24.5,15.3l3.6,22.7c-1.9-4.4-4.6-8.6-8-12.5c-7.2-8.2-16.5-13.5-25.8-15.5c0.4,9.1,4.2,18.7,11.4,26.9
	c6.9,7.9,15.7,13,24.5,15.3l2.2,14.1c0.1,2.1,0.5,4.2,1,6.3c0,0,0,0,0,0l0.3,1.6c-1.9-4.4-4.6-8.6-8-12.5
	c-7.2-8.2-16.5-13.5-25.8-15.5c0.4,9.1,4.2,18.7,11.4,26.9c6.9,7.9,15.7,13,24.5,15.3l1.7,10.8c0,3.1,0.4,6.2,1.2,9.3
	c0.1,0,0.2,0,0.3,0l4,25.5l3.3,0.2l-4.1-26.1c7.8-1.3,14.6-5.3,19-11.8c5-7.5,6.1-17,3.7-26.4C307.6,322.5,299.5,326.6,294.4,334.1z
	"/>
<path class="st5" d="M389.4,319.6c1.2,1.5,2.1,3.2,2.8,5l1.2-12.7c-5.8-0.7-11-3.5-14.6-8.2c-4.1-5.4-5.4-12.5-4.2-19.6
	c6.8,0.2,13,3,17.1,8.4c1.3,1.7,2.3,3.5,3,5.5l1.2-12.7c-6-0.6-11.4-3.4-15.1-8.3c-4.1-5.4-5.4-12.5-4.2-19.6c6.8,0.2,13,3,17.1,8.4
	c1.5,2,2.6,4.2,3.4,6.5l1.4-14.2c-5.8-0.7-11-3.5-14.6-8.2c-4.1-5.4-5.4-12.5-4.2-19.6c6.8,0.2,13,3,17.1,8.4c1.3,1.7,2.3,3.5,3,5.5
	l1.5-16.2c-5.8-0.7-11-3.5-14.6-8.2c-4.1-5.4-5.4-12.5-4.2-19.6c6.8,0.2,13,3,17.1,8.4c1.3,1.7,2.3,3.6,3,5.5l1.3-13.9
	c-5.8-0.7-11-3.5-14.6-8.2c-4.1-5.4-5.4-12.5-4.2-19.6c6.8,0.2,13,3,17.1,8.4c1.3,1.7,2.3,3.6,3,5.5l1.3-13.2
	c-5.9-0.7-11.1-3.4-14.7-8.2c-4.1-5.4-5.4-12.5-4.2-19.6c6.8,0.2,13,3,17.1,8.4c3.5,4.6,4.9,10.2,4.5,16.2h0l-0.2,1.9
	c1.2-3.4,3.1-6.8,5.5-10c5.1-6.6,11.9-11.1,18.8-13.1c0.1,6.9-2.4,14.5-7.5,21.1c-4.9,6.3-11.3,10.7-17.9,12.8l-1.3,13
	c0,1-0.1,2-0.2,3c1.2-3.3,3-6.6,5.4-9.6c5.1-6.6,11.9-11.1,18.8-13.1c0.1,6.9-2.4,14.5-7.5,21.1c-4.9,6.3-11.3,10.7-17.9,12.8
	l-1.3,13.6c0,1.6-0.2,3.2-0.4,4.8c0,0,0,0,0,0l0,0.5c1.2-3.4,3.1-6.8,5.5-10c5.1-6.6,11.9-11.1,18.8-13.1c0.1,6.9-2.4,14.5-7.5,21.1
	c-4.9,6.3-11.3,10.7-17.9,12.8l-1.3,13.9c0,1.1-0.1,2.1-0.2,3.2c1.2-3.3,3-6.6,5.4-9.7c5.1-6.6,11.9-11.1,18.8-13.1
	c0.1,7-2.4,14.5-7.5,21.1c-4.9,6.3-11.3,10.7-17.9,12.8l-1.7,17.5c1.2-3.4,3.1-6.8,5.5-10c5.1-6.6,11.9-11.1,18.8-13.1
	c0.1,7-2.4,14.5-7.5,21.1c-4.9,6.3-11.3,10.7-17.9,12.8l-1,10.9c0,1.6-0.2,3.2-0.4,4.8c0,0,0,0,0,0l-0.1,1.3c1.2-3.4,3.1-6.8,5.5-10
	c5.1-6.6,11.9-11.1,18.8-13.1c0.1,7-2.4,14.5-7.5,21.1c-4.9,6.3-11.3,10.7-17.9,12.8l-0.8,8.3c0.1,2.3,0,4.8-0.5,7.2
	c-0.1,0-0.1,0-0.2,0l-1.9,19.7l-2.5,0.3l1.9-20.2c-6-0.7-11.3-3.4-14.9-8.2c-4.2-5.5-5.4-12.7-4-20.1
	C378.8,311.3,385.2,314.1,389.4,319.6z"/>
<path class="st6" d="M176.6,316.8c-1.2,1.8-2.2,3.7-3,5.7l-1.1-13.6c6-1.4,11.4-4.9,15.2-10.5c4.3-6.3,5.7-14,4.5-21.6
	c-7,0.9-13.4,4.6-17.7,10.9c-1.4,2-2.4,4.1-3.2,6.3l-1.1-13.5c6.2-1.3,11.8-4.9,15.6-10.5c4.3-6.3,5.7-14,4.5-21.6
	c-7,0.9-13.4,4.6-17.7,10.9c-1.6,2.3-2.8,4.8-3.6,7.4l-1.2-15.2c6-1.4,11.4-4.9,15.2-10.5c4.3-6.3,5.7-14,4.5-21.6
	c-7,0.9-13.4,4.6-17.7,10.9c-1.4,2-2.4,4.1-3.2,6.3l-1.4-17.3c6-1.4,11.4-4.9,15.2-10.4c4.3-6.3,5.7-14.1,4.5-21.6
	c-7,0.9-13.4,4.6-17.7,10.9c-1.4,2-2.4,4.1-3.2,6.3l-1.2-14.9c6-1.4,11.4-4.9,15.2-10.4c4.3-6.3,5.7-14.1,4.5-21.6
	c-7,0.9-13.4,4.6-17.7,10.9c-1.4,2-2.4,4.1-3.2,6.3l-1.1-14.1c6-1.4,11.5-4.9,15.3-10.5c4.3-6.3,5.7-14.1,4.5-21.6
	c-7,0.9-13.4,4.6-17.7,10.9c-3.6,5.3-5.2,11.6-4.9,17.9h0l0.2,2c-1.2-3.6-3.1-7-5.5-10.2c-5.2-6.6-12.1-10.7-19.2-12.1
	c-0.2,7.5,2.3,15.4,7.4,22c4.9,6.3,11.5,10.3,18.3,11.9l1.1,13.9c0,1.1,0.1,2.2,0.2,3.3c-1.2-3.4-3-6.8-5.4-9.8
	c-5.2-6.6-12.1-10.7-19.2-12.1c-0.2,7.5,2.3,15.4,7.4,22c4.9,6.3,11.5,10.3,18.3,11.9l1.2,14.5c0,1.7,0.1,3.4,0.4,5.2c0,0,0,0,0,0
	l0,0.5c-1.2-3.6-3.1-7-5.5-10.2c-5.2-6.6-12.1-10.7-19.2-12.1c-0.2,7.5,2.3,15.4,7.4,22c4.9,6.3,11.5,10.3,18.3,11.9l1.2,14.8
	c0,1.1,0.1,2.3,0.2,3.4c-1.2-3.5-3-6.8-5.4-9.9c-5.2-6.6-12.1-10.7-19.2-12.1c-0.2,7.5,2.3,15.4,7.4,22c4.9,6.3,11.5,10.3,18.3,11.9
	l1.5,18.8c-1.2-3.6-3.1-7-5.5-10.2c-5.2-6.6-12.1-10.7-19.2-12.1c-0.2,7.5,2.3,15.4,7.4,22c4.9,6.3,11.5,10.3,18.3,11.9l0.9,11.7
	c0,1.7,0.1,3.5,0.4,5.2c0,0,0,0,0,0l0.1,1.3c-1.2-3.6-3.1-7-5.5-10.2c-5.2-6.6-12.1-10.7-19.2-12.1c-0.2,7.5,2.3,15.4,7.4,22
	c4.9,6.3,11.5,10.3,18.3,11.9l0.7,8.9c-0.2,2.5,0,5.1,0.4,7.7c0.1,0,0.1,0,0.2,0l1.7,21.1l2.6,0l-1.7-21.5
	c6.1-1.4,11.7-4.9,15.5-10.4c4.4-6.4,5.7-14.3,4.4-22.1C187.6,306.7,181,310.4,176.6,316.8z"/>
<path class="st7" d="M465.1,332c-1.4,1.2-2.6,2.5-3.5,3.9l0.6-9.7c5.9-0.7,11.6-2.9,15.9-6.6c4.9-4.2,7.2-9.6,7-15
	c-6.8,0.3-13.5,2.6-18.4,6.8c-1.5,1.3-2.8,2.8-3.9,4.3l0.6-9.5c6.3-0.5,12.4-2.8,17-6.7c4.9-4.2,7.2-9.6,7-15
	c-6.8,0.3-13.5,2.6-18.4,6.8c-2.2,1.9-3.9,4-5,6.3l0.8-12.1c5.9-0.7,11.6-2.9,15.9-6.6c4.9-4.2,7.2-9.6,7-15
	c-6.8,0.3-13.5,2.6-18.4,6.8c-1.5,1.3-2.8,2.8-3.9,4.3l0.8-12.3c5.9-0.7,11.6-2.9,15.9-6.6c4.9-4.2,7.2-9.6,7-15
	c-6.8,0.3-13.5,2.6-18.4,6.8c-1.5,1.3-2.8,2.8-3.9,4.3l0.7-10.6c5.9-0.7,11.6-2.9,15.9-6.6c4.9-4.2,7.2-9.6,7-15
	c-6.8,0.3-13.5,2.6-18.4,6.8c-1.5,1.3-2.8,2.8-3.9,4.3l0.6-10.1c6-0.7,11.7-2.9,16-6.6c4.9-4.2,7.2-9.6,7-15
	c-6.8,0.3-13.5,2.6-18.4,6.8c-4.1,3.6-6.4,7.9-6.9,12.4h0l-0.1,1.4c-0.8-2.6-2.1-5.1-4.1-7.5c-4.2-4.9-10.3-8.2-17-9.5
	c-1.1,5.3,0.3,11,4.5,15.9c4,4.7,9.8,7.9,16.2,9.3l-0.6,9.9c-0.1,0.8-0.2,1.5-0.2,2.3c-0.8-2.5-2.1-4.9-4-7.2
	c-4.2-4.9-10.3-8.2-17-9.5c-1.1,5.3,0.3,11,4.5,15.9c4,4.7,9.8,7.9,16.2,9.3l-0.6,10.3c-0.2,1.2-0.3,2.5-0.3,3.7c0,0,0,0,0,0l0,0.4
	c-0.8-2.6-2.1-5.1-4.1-7.5c-4.2-4.9-10.3-8.2-17-9.5c-1.1,5.3,0.3,11,4.5,15.9c4,4.7,9.8,7.9,16.2,9.3l-0.7,10.5
	c-0.1,0.8-0.2,1.6-0.2,2.4c-0.8-2.5-2.1-5-4-7.2c-4.2-4.9-10.3-8.2-17-9.5c-1.1,5.3,0.3,11,4.5,15.9c4,4.7,9.8,7.9,16.2,9.3
	l-0.8,13.3c-0.8-2.6-2.1-5.1-4.1-7.5c-4.2-4.9-10.3-8.2-17-9.5c-1.1,5.3,0.3,11,4.5,15.9c4,4.7,9.8,7.9,16.2,9.3l-0.5,8.3
	c-0.2,1.2-0.3,2.5-0.3,3.7c0,0,0,0,0,0l-0.1,1c-0.8-2.6-2.1-5.1-4.1-7.5c-4.2-4.9-10.3-8.2-17-9.5c-1.1,5.3,0.3,11,4.5,15.9
	c4,4.7,9.8,7.9,16.2,9.3l-0.4,6.3c-0.5,1.8-0.6,3.6-0.5,5.5c0.1,0,0.1,0,0.2,0l-0.9,15l2.5,0.2l1-15.3c6.1-0.6,11.8-2.8,16.2-6.6
	c5-4.3,7.3-9.8,6.9-15.4C476.9,325.5,470.1,327.7,465.1,332z"/>
<path class="st5" d="M525.1,268.9c3.7-3.1,5.7-7.3,6-11.6c-4.6-0.2-9.3,1.2-12.9,4.3c-1.2,1-2.2,2.1-3,3.3c0,0,0-0.1,0-0.1l1.6-8
	c4.2-0.1,8.3-1.5,11.6-4.3c3.7-3.1,5.7-7.3,6-11.6c-4.6-0.2-9.3,1.2-12.9,4.3c-1.2,1-2.3,2.2-3.2,3.5c0.4-3.4-0.2-7-2.1-10.4
	c-2.3-4.2-6.2-7.2-10.6-8.7c-1.2,4.2-0.8,8.8,1.6,13c2.1,3.7,5.3,6.5,9.1,8.1l-1.6,8c-0.4-1.4-0.9-2.7-1.7-4
	c-2.4-4.2-6.2-7.2-10.6-8.7c-1.2,4.2-0.8,8.8,1.6,13c2.1,3.7,5.3,6.5,9,8.1l-1.7,8.4c-0.4-1.4-0.9-2.7-1.6-4
	c-2.4-4.2-6.2-7.2-10.6-8.7c-1.2,4.2-0.8,8.8,1.6,13c2.1,3.7,5.3,6.5,9,8.1l-1.9,9.7c-0.4-1.4-0.9-2.7-1.6-4
	c-2.4-4.2-6.2-7.2-10.6-8.7c-1.2,4.2-0.8,8.8,1.6,13c2.1,3.7,5.3,6.5,9,8.1l-2.1,10.5c-0.2-2.3-0.9-4.6-2.1-6.8
	c-2.4-4.2-6.2-7.2-10.6-8.7c-1.2,4.2-0.8,8.8,1.6,13c2.2,4,5.8,6.9,10,8.5l-1.5,7.5c-0.4-1.4-0.9-2.7-1.6-4
	c-2.4-4.2-6.2-7.2-10.6-8.7c-1.2,4.2-0.8,8.8,1.6,13c2.1,3.7,5.3,6.5,9,8.1l-1.5,7.7c-0.4-1.3-0.9-2.5-1.5-3.7
	c-2.4-4.3-6.4-7.3-10.9-8.8c-1.3,4.3-0.9,9,1.5,13.3c2.1,3.7,5.4,6.5,9.2,8.1l-2.4,12.1l1.6,0.3l2.4-11.9c0,0,0.1,0,0.1,0
	c0.4-1.4,0.7-2.9,0.7-4.4l1-5.1c4.2-0.1,8.3-1.5,11.6-4.3c3.7-3.1,5.7-7.3,6-11.6c-4.6-0.2-9.3,1.2-12.9,4.3c-1.1,1-2.1,2-3,3.2
	c0.1-0.5,0.2-1.1,0.3-1.6l1.3-6.7c4.2-0.1,8.3-1.5,11.6-4.3c3.7-3.1,5.7-7.3,6-11.6c-4.6-0.2-9.3,1.2-12.9,4.3c-1.2,1-2.2,2.1-3,3.3
	l1.8-8.8c4.2-0.1,8.3-1.5,11.6-4.3c3.7-3.1,5.7-7.3,6-11.6c-4.6-0.2-9.3,1.2-12.9,4.3c-1.2,1-2.2,2.1-3,3.3c0-0.1,0-0.1,0-0.2
	l1.7-8.5c4.2-0.1,8.3-1.5,11.6-4.3c3.7-3.1,5.7-7.3,6-11.6c-4.6-0.2-9.3,1.2-12.9,4.3c-1.2,1-2.1,2-3,3.2c0.1-0.4,0.1-0.8,0.2-1.2
	l1.7-8.3C517.7,273.1,521.8,271.7,525.1,268.9z"/>
<g class="st1">
	<path class="st8" d="M234.9,362.7c17.9-0.1,35.7-0.2,53.6-0.2c43.5-0.2,87.1-0.4,130.6-0.6c10.9,0,21.8-0.1,32.7-0.1
		c9.3,0,23.8,2.5,32.6-0.1c6.8-2,12-12.2,15.9-17.7c5.3-7.6,9.9-15.5,14-23.7c6.8-13.7,11.9-28.8,9.5-43.7
		c-4-24.2-26.9-42.3-51.4-52c-15-5.9-32.7-10.7-40-24.1c-8.5-15.3,1-33.8-0.9-50.9c-1.1-10.4-6.5-20-13-28.6
		c-8.4-11.1-18.9-21.1-32-27.3c-13.1-6.2-28.9-8.1-42.8-3.5c-11.4,3.9-20.5,11.8-31.2,17.1c-14.4,7.2-31.6,9.4-47.6,6.2
		c-12.9-2.6-24.9-8.6-38.1-10.3c-28.2-3.7-56.4,14.3-67.3,38.4c-10.9,24.1-6.5,52.4,6.4,75.6c6.9,12.4,16.3,24.6,15.9,38.4
		c-0.4,11.4-7.6,21.8-16.1,30.2S147,301.3,139,310.1c-8.7,9.5-14.8,21-17.8,33.2c-0.8,3.3-4.5,15.3-1.8,18.1
		c2.3,2.5,17.7,0.9,21.4,1C172.2,363,203.5,362.8,234.9,362.7z"/>
</g>
<g class="st1">
	<path class="st8" d="M513.9,134.5c-10.5-5.5-24.4-2-31.6,7.9c-2.9,3.9-4.8,8.8-8.4,11.9c-4.1,3.6-9.7,4.4-14.3,7.2
		c-6.8,4-11.1,12.6-9.8,20.8c0.9,5.7,4.3,10.8,8.4,14.5s9,6.4,13.8,9.1c5.8,3.2,11.5,6.3,17.3,9.5c6.2,3.4,12.9,6.9,19.8,6.3
		c4.9-0.4,9.6-2.9,13.6-6c3-2.3,5.8-4.9,7.5-8.4c3.4-6.9,1.7-15.2,1.3-23c-0.5-11.3,1.8-23.3-2.5-33.6c-2.4-5.7-6.6-10.3-11.4-13.9
		c-1.5-1.1-3-2.1-4.8-2.7c-3.9-1.3-8.2-0.4-11.6,2.1s-5.8,6.2-7.2,10.3"/>
</g>
<path class="st5" d="M289.2,306.2c-7.9,1-15.4,4.2-20.6,9.3c-2.5,2.4-4.3,5.1-5.3,7.9v-1c0,0,0,0,0,0c0.1-1.3,0.1-2.7,0-4l0-9.1
	c7.5-1.2,14.6-4.3,19.6-9.1c5.2-5.1,7.3-11.2,6.4-17.1c-7.9,1-15.4,4.2-20.6,9.3c-2.5,2.4-4.3,5.1-5.3,7.9l0-14.6
	c7.5-1.2,14.6-4.3,19.6-9.1c5.2-5.1,7.3-11.2,6.4-17.1c-7.9,1-15.4,4.2-20.6,9.3c-2.4,2.4-4.2,5-5.2,7.6c0-0.9,0-1.8-0.1-2.7l0-11.5
	c7.5-1.2,14.6-4.3,19.6-9.1c5.2-5.1,7.3-11.2,6.4-17.1c-7.9,1-15.4,4.2-20.6,9.3c-2.5,2.4-4.3,5.1-5.3,7.9v-0.4c0,0,0,0,0,0
	c0.1-1.3,0.1-2.7,0-4l0-11.3c7.5-1.2,14.6-4.3,19.6-9.1c5.2-5.1,7.3-11.2,6.4-17.1c-7.9,1-15.4,4.2-20.6,9.3
	c-2.4,2.4-4.2,4.9-5.2,7.6c0-0.9,0-1.7-0.1-2.5l0-10.8c7.5-1.2,14.6-4.3,19.6-9.1c5.2-5.1,7.3-11.2,6.4-17.1
	c-7.9,1-15.4,4.2-20.6,9.3c-2.5,2.4-4.3,5.1-5.3,7.9v-1.6h0c0-0.9-0.2-1.9-0.4-2.8l-0.1-8.8c7.2-0.8,13.8-3.3,18.6-7.4
	c5.5-4.7,7.7-10.7,6.8-16.6c-8.4,0.4-16.3,3-21.8,7.7c-1.5,1.3-2.8,2.7-3.9,4.2l-0.1-10.4c7-0.9,13.5-3.4,18.3-7.4
	c5.5-4.6,7.7-10.5,7-16.3c-8.1,0.5-15.8,3.1-21.3,7.7c-1.7,1.4-3.1,3-4.2,4.7l-0.1-10.3c7.2-0.8,13.9-3.3,18.8-7.5
	c5.5-4.6,7.7-10.5,7-16.3c-8.1,0.5-15.8,3.1-21.3,7.7c-2,1.7-3.6,3.6-4.7,5.5l-0.2-11.6c7-0.9,13.5-3.4,18.3-7.4
	c5.5-4.6,7.7-10.5,7-16.3c-8.1,0.5-15.8,3.1-21.3,7.7c-1.7,1.4-3.1,3-4.2,4.7l-0.2-13.2c7-0.9,13.5-3.4,18.3-7.4
	c5.5-4.7,7.7-10.5,7-16.3c-8.1,0.5-15.8,3.1-21.3,7.7c-1.7,1.4-3.1,3-4.2,4.7v-0.3l-2.9,4.4l0,3.6c-0.1,1.3-0.1,2.6,0,3.9
	c0,0,0,0,0,0l0,0.4c-1.1-2.8-3-5.4-5.5-7.9c-5.4-5.2-13-8.5-21.1-9.8c-0.8,5.7,1.3,11.8,6.7,17c5.1,5,12.4,8.2,20.1,9.6l0.2,11.3
	c-0.1,0.9-0.1,1.7-0.1,2.6c-1.1-2.7-2.9-5.3-5.4-7.7c-5.4-5.2-13-8.5-21.1-9.8c-0.8,5.7,1.3,11.8,6.7,16.9c5.1,5,12.4,8.2,20.1,9.6
	l0.2,14.3c-1.1-2.8-3-5.4-5.5-7.9c-5.4-5.2-13-8.5-21.1-9.8c-0.8,5.7,1.3,11.8,6.7,16.9c5.1,5,12.4,8.2,20.1,9.6l0.1,8.9
	c-0.1,1.3-0.1,2.6,0,3.9c0,0,0,0,0,0l0,1c-1.1-2.8-3-5.4-5.5-7.9c-5.4-5.2-13-8.5-21.1-9.8c-0.8,5.7,1.3,11.8,6.7,16.9
	c5.1,5,12.4,8.2,20.1,9.6l0.1,6.8c-0.4,1.9-0.4,3.9-0.1,5.9c0.1,0,0.1,0,0.2,0l0,1.6c-1-1.5-2.3-2.9-3.8-4.3c-5.4-4.9-13-7.9-21-8.6
	c-0.6,5.9,1.6,11.9,7.1,16.9c4.7,4.3,11.1,7,17.9,8.2c0.1,0,0.3,0.1,0.4,0.1v2.2l0,8.8c-1.1-1.7-2.5-3.4-4.2-4.9
	c-5.4-4.9-13-7.9-21-8.6c-0.6,5.9,1.6,11.9,7.1,16.9c4.8,4.3,11.2,7.1,18.1,8.3l0,11.6c-1.1-1.7-2.5-3.4-4.2-4.9
	c-5.4-4.9-13-7.9-21-8.6c-0.6,5.9,1.6,11.9,7.1,16.9c4.8,4.3,11.2,7.1,18.1,8.3l0,13.5c-1.1-1.7-2.5-3.4-4.2-4.9
	c-5.4-4.9-13-7.9-21-8.6c-0.6,5.9,1.6,11.9,7.1,16.9c4.8,4.3,11.2,7.1,18.1,8.3l0,13.3c-1.2-2.6-3-5-5.4-7.2c-5.4-4.9-13-7.9-21-8.6
	c-0.6,5.9,1.6,11.9,7.1,16.9c5.1,4.6,12,7.5,19.4,8.5l0,10.4c-1.1-1.7-2.5-3.4-4.2-4.9c-5.4-4.9-13-7.9-21-8.6
	c-0.6,5.9,1.6,11.9,7.1,16.9c4.8,4.3,11.2,7.1,18.1,8.3l0,10.6c-1-1.6-2.3-3.1-3.9-4.5c-5.5-5-13.3-7.9-21.5-8.6
	c-0.8,6,1.4,12.2,6.9,17.3c4.8,4.4,11.4,7.1,18.4,8.3l0,16.8l2.9,0l0-16.4c0.1,0,0.1,0,0.2,0c0.3-2,0.2-4-0.2-6l0-6.9
	c7.5-1.2,14.6-4.3,19.6-9.1C288,318.2,290.1,312.1,289.2,306.2z"/>
<path class="st4" d="M355.5,307.3c9.1,1.4,17.8,5.5,24,12.4c3,3.3,5.1,6.8,6.4,10.5l0-1.4c0,0,0,0,0,0c-0.2-1.8-0.3-3.6-0.1-5.4
	l-0.4-12.2c-8.7-1.5-16.9-5.6-22.8-12.2c-6.2-6.8-8.8-15-8-22.8c9.1,1.4,17.8,5.5,24,12.4c3,3.3,5.1,6.8,6.4,10.5l-0.6-19.5
	c-8.7-1.5-16.9-5.6-22.8-12.2c-6.2-6.8-8.8-15-8-22.8c9.1,1.4,17.8,5.5,24,12.4c2.9,3.2,5,6.6,6.3,10.2c-0.1-1.2-0.1-2.4,0-3.6
	l-0.5-15.4c-8.7-1.5-16.9-5.6-22.8-12.2c-6.2-6.8-8.8-15-8-22.8c9.1,1.4,17.8,5.6,24,12.4c3,3.3,5.1,6.8,6.4,10.5l0-0.5c0,0,0,0,0,0
	c-0.2-1.8-0.3-3.6-0.1-5.4l-0.5-15.1c-8.7-1.5-16.9-5.6-22.8-12.2c-6.2-6.8-8.8-15-8-22.8c9.1,1.4,17.8,5.6,24,12.4
	c2.9,3.1,5,6.6,6.3,10.2c-0.1-1.1-0.1-2.3,0-3.4l-0.5-14.5c-8.7-1.5-16.9-5.6-22.8-12.2c-6.2-6.8-8.8-15-8-22.8
	c9.1,1.4,17.8,5.6,24,12.4c3,3.3,5.1,6.8,6.4,10.5l-0.1-2.1h0c0-1.3,0.1-2.5,0.3-3.7l-0.2-11.8c-8.2-1.1-15.9-4.4-21.6-9.9
	c-6.5-6.3-9.3-14.3-8.5-22.2c9.6,0.5,18.7,3.9,25.2,10.2c1.8,1.8,3.4,3.7,4.6,5.6l-0.2-13.9c-8-1.2-15.6-4.5-21.2-9.9
	c-6.4-6.2-9.3-14-8.6-21.7c9.3,0.6,18.2,4.1,24.6,10.3c2,1.9,3.7,4,5,6.2l-0.2-13.8c-8.3-1.1-16.1-4.4-21.9-10
	c-6.4-6.2-9.3-14-8.6-21.7c9.3,0.6,18.2,4.1,24.6,10.3c2.4,2.3,4.2,4.8,5.6,7.4l-0.3-15.5c-8-1.2-15.6-4.5-21.2-9.9
	c-6.4-6.2-9.3-14-8.6-21.7c9.3,0.6,18.2,4.1,24.6,10.3c2,1.9,3.7,4,5,6.2l-0.3-17.6c-8-1.2-15.6-4.5-21.2-9.9
	c-6.4-6.2-9.3-14-8.6-21.7c9.3,0.6,18.2,4.1,24.6,10.3c2,1.9,3.7,4,5,6.2l0-0.5l3.5,5.9l0.1,4.8c0.2,1.8,0.3,3.5,0.1,5.3
	c0,0,0,0,0,0l0,0.5c1.2-3.7,3.2-7.3,6-10.6c6-6.9,14.6-11.4,23.8-13.1c1.2,7.6-1,15.7-7,22.7c-5.7,6.6-13.8,11-22.6,12.9l0.3,15.1
	c0.1,1.2,0.2,2.3,0.2,3.5c1.2-3.6,3.1-7,5.9-10.3c6-6.9,14.6-11.4,23.8-13.1c1.2,7.6-1,15.7-7,22.7c-5.7,6.6-13.8,11-22.6,12.9
	l0.3,19.1c1.2-3.7,3.2-7.3,6-10.6c6-6.9,14.6-11.4,23.8-13.1c1.2,7.6-1,15.7-7,22.7c-5.7,6.6-13.8,11-22.6,12.9l0.2,11.9
	c0.2,1.8,0.3,3.5,0.1,5.3c0,0,0,0,0,0l0,1.4c1.2-3.7,3.2-7.3,6-10.6c6-6.9,14.6-11.4,23.8-13.1c1.2,7.6-1,15.7-7,22.7
	c-5.7,6.6-13.8,11-22.6,12.9l0.2,9.1c0.5,2.6,0.7,5.2,0.4,7.8c-0.1,0-0.2,0-0.3,0l0,2.2c1.1-2,2.5-3.9,4.1-5.7
	c6-6.6,14.6-10.5,23.7-11.6c1,7.9-1.4,15.9-7.4,22.6c-5.2,5.7-12.4,9.4-20.1,11c-0.1,0-0.3,0.1-0.4,0.1l0.1,3l0.4,11.8
	c1.2-2.3,2.7-4.5,4.6-6.6c6-6.6,14.6-10.5,23.7-11.6c1,7.9-1.4,15.9-7.4,22.6c-5.3,5.8-12.5,9.5-20.4,11.1l0.5,15.5
	c1.2-2.3,2.7-4.5,4.6-6.6c6-6.6,14.6-10.5,23.7-11.6c1,7.9-1.4,15.9-7.4,22.6c-5.3,5.8-12.5,9.5-20.4,11.1l0.5,18
	c1.2-2.3,2.7-4.5,4.6-6.6c6-6.6,14.6-10.5,23.7-11.6c1,7.9-1.4,16-7.4,22.6c-5.3,5.8-12.5,9.5-20.4,11.1l0.5,17.7
	c1.3-3.4,3.2-6.7,5.9-9.7c6-6.6,14.6-10.5,23.7-11.6c1,7.9-1.4,16-7.4,22.6c-5.6,6.1-13.4,10-21.8,11.3l0.4,13.9
	c1.2-2.3,2.7-4.5,4.6-6.6c6-6.6,14.6-10.5,23.7-11.6c1,7.9-1.4,16-7.4,22.6c-5.3,5.8-12.5,9.5-20.4,11.1l0.4,14.2
	c1.1-2.1,2.5-4.1,4.2-6c6.1-6.7,14.9-10.6,24.3-11.6c1.2,8.1-1.1,16.4-7.3,23c-5.3,5.9-12.7,9.6-20.8,11l0.7,22.4l-3.3,0l-0.7-21.9
	c-0.1,0-0.2,0-0.3,0c-0.4-2.7-0.4-5.4,0-8l-0.3-9.2c-8.7-1.5-16.9-5.6-22.8-12.2C357.4,323.3,354.8,315.1,355.5,307.3z"/>
<path class="st9" d="M467.2,306.6c10.4,1.9,20,6.5,26.6,13.6c3.1,3.4,5.3,7,6.5,10.8l0.1-1.4c0,0,0,0,0,0c-0.1-1.8,0-3.6,0.3-5.3
	l0.5-12c-9.9-2-19-6.6-25.2-13.3c-6.6-7.1-8.9-15.3-7.4-23c10.4,1.9,20,6.5,26.6,13.6c3.1,3.4,5.3,7,6.5,10.8l0.9-19.3
	c-9.9-2-19-6.6-25.2-13.3c-6.6-7.1-8.9-15.3-7.4-23c10.4,1.9,20,6.5,26.6,13.6c3,3.3,5.2,6.8,6.4,10.4c0-1.2,0.1-2.4,0.3-3.5
	l0.7-15.3c-9.9-2-19-6.6-25.2-13.3c-6.6-7.1-8.9-15.3-7.4-23c10.4,1.9,20,6.5,26.6,13.6c3.1,3.4,5.3,7,6.5,10.8l0-0.5c0,0,0,0,0,0
	c-0.1-1.8,0-3.6,0.3-5.3l0.7-15c-9.9-2-19-6.6-25.2-13.3c-6.6-7.1-8.9-15.3-7.4-23c10.4,1.9,20,6.5,26.6,13.6
	c3,3.3,5.2,6.8,6.4,10.4c0-1.1,0.1-2.2,0.3-3.4l0.6-14.3c-9.9-2-19-6.6-25.2-13.3c-6.6-7.1-8.9-15.3-7.4-23
	c10.4,1.9,20,6.5,26.6,13.6c3.1,3.4,5.3,7,6.5,10.8l0.1-2.1h0c0.1-1.2,0.3-2.5,0.7-3.7l0.7-11.7c-9.4-1.6-18-5.3-24.1-11
	c-7-6.6-9.5-14.6-8-22.5c11,1.1,21.2,5,28.2,11.6c2,1.9,3.6,3.8,4.8,5.9l0.8-13.7c-9.2-1.6-17.6-5.3-23.6-11
	c-6.9-6.5-9.5-14.4-8.2-22c10.6,1.2,20.6,5.1,27.5,11.6c2.2,2,3.9,4.2,5.2,6.4l0.8-13.6c-9.4-1.5-18.1-5.3-24.3-11.1
	c-6.9-6.5-9.5-14.4-8.2-22c10.6,1.2,20.6,5.1,27.5,11.6c2.5,2.4,4.5,4.9,5.9,7.6l0.9-15.3c-9.2-1.6-17.6-5.3-23.6-11
	c-6.9-6.5-9.5-14.4-8.2-22c10.6,1.2,20.6,5.1,27.5,11.6c2.2,2,3.9,4.2,5.2,6.4l1.1-17.4c-9.2-1.6-17.6-5.3-23.6-11
	c-6.9-6.5-9.5-14.4-8.2-22c10.6,1.2,20.6,5.1,27.5,11.6c2.2,2,3.9,4.2,5.2,6.5l0-0.5l3.5,6l-0.3,4.7c0.1,1.7,0,3.5-0.3,5.2
	c0,0,0,0,0,0l0,0.5c1.7-3.6,4.2-7,7.8-10.1c7.4-6.5,17.7-10.5,28.4-11.6c0.7,7.6-2.5,15.5-9.9,22c-7.1,6.2-16.8,10.1-27,11.4
	l-0.9,15c0.1,1.2,0,2.3-0.1,3.5c1.7-3.4,4.2-6.8,7.6-9.8c7.4-6.5,17.7-10.4,28.4-11.6c0.7,7.6-2.5,15.5-9.9,22
	c-7.1,6.2-16.8,10.1-27,11.4l-1.2,18.9c1.7-3.6,4.2-7,7.8-10.1c7.4-6.5,17.7-10.4,28.4-11.6c0.7,7.6-2.5,15.5-9.9,22
	c-7.1,6.2-16.8,10.1-27,11.4l-0.7,11.8c0.1,1.7,0,3.5-0.3,5.2c0,0,0,0,0,0l-0.1,1.4c1.7-3.6,4.2-7,7.8-10.1
	c7.4-6.5,17.7-10.4,28.4-11.6c0.7,7.6-2.5,15.5-9.9,22c-7.1,6.2-16.8,10.1-27,11.4l-0.5,8.9c0.4,2.6,0.3,5.2-0.2,7.8
	c-0.1,0-0.2,0-0.3,0l-0.1,2.2c1.4-1.9,3.2-3.7,5.2-5.4c7.5-6.2,17.6-9.6,28.2-10.1c0.5,7.8-2.9,15.7-10.3,21.9
	c-6.5,5.4-15,8.6-24,9.7c-0.2,0-0.3,0.1-0.5,0.1l-0.1,2.9l-0.5,11.6c1.5-2.2,3.5-4.3,5.8-6.2c7.5-6.2,17.6-9.6,28.2-10.1
	c0.5,7.8-2.9,15.7-10.3,21.9c-6.5,5.4-15.2,8.7-24.3,9.8l-0.7,15.3c1.5-2.2,3.5-4.3,5.8-6.2c7.5-6.2,17.6-9.6,28.2-10.1
	c0.5,7.8-2.9,15.7-10.3,21.9c-6.5,5.4-15.2,8.7-24.3,9.8l-0.8,17.8c1.5-2.2,3.5-4.3,5.8-6.2c7.5-6.2,17.6-9.6,28.2-10.1
	c0.5,7.8-2.9,15.7-10.3,21.9c-6.5,5.4-15.2,8.7-24.3,9.8l-0.8,17.6c1.7-3.3,4.3-6.4,7.6-9.2c7.5-6.2,17.6-9.6,28.2-10.1
	c0.5,7.8-2.9,15.7-10.3,21.9c-6.9,5.8-16.2,9.1-26,9.9L505,314c1.5-2.2,3.5-4.3,5.8-6.2c7.5-6.2,17.6-9.6,28.2-10.1
	c0.5,7.8-2.9,15.7-10.3,21.9c-6.5,5.4-15.2,8.7-24.3,9.8l-0.6,14c1.5-2,3.2-3.9,5.4-5.6c7.6-6.3,18-9.6,28.9-10
	c0.7,8-2.6,16.1-10.2,22.4c-6.6,5.5-15.4,8.7-24.8,9.7l-1,22.2l-3.8-0.2l1-21.7c-0.1,0-0.2,0-0.3,0c-0.2-2.7,0-5.3,0.6-7.9l0.4-9.1
	c-9.9-2-19-6.6-25.2-13.3C468,322.5,465.7,314.3,467.2,306.6z"/>
<g>
	<path class="st10" d="M357.7,221.3c-7.4,5.9-6.4,5.8-16.2,7.9c-5.2,1.1-10.6,2.1-15.9,1.9c-5.4-0.2-10.8-1.5-15.1-4.6
		c-3.3-2.4-5.7-5.6-7.7-9c-1.8-3.1-3.3-6.7-2.7-10.3c1.1-6.8,9.3-11.9,8.3-18.7c-0.3-2.1-1.5-3.9-2.4-5.9c-1.4-2.8-2.3-6.1-1.3-9.1
		c1.5-4.2,6.2-6.4,9.1-9.8c4.9-5.7,4-14,2.3-21.2c-1.7-7.2-2.6-14-0.2-21c2.9-8.2,10.6-13.2,19.6-13.7c2.6-0.1,5.2,0.1,7.6,1.1
		s4.4,2.2,5,4.6l-4.6,1.6c2.3-2.2,6.1-2.3,9-0.9c2.9,1.4,4.9,4.1,6.3,6.9c1.4,2.8,3,6.7,3.3,9.8c0.5,5.2-1.4,10.1,1.3,14.6
		c2.4,4.1,4.2,6.2,8.3,8.6s7.5,7.2,7,11.9c-0.5,4.6-1.4,6.9-3,11.2c-2.2,6.1,2,12.4,3.2,18.7c0.6,3.1,0.6,7.4-0.6,10.3
		c-2.4,5.7-4.6,8.8-8.1,11.4c-1.8,1.3-15.4,8.1-17.6,8.7c-4.1,1.2,6.1,0,1.9-0.8L357.7,221.3z"/>
</g>
<path class="st11" d="M495.4,359.2c-3.1,19-85.2,19.2-190.3,19.2s-190.3-3.2-190.3-13.8c0-29.4,85.2-24.6,190.3-24.6
	S498.2,342,495.4,359.2z"/>
<g>
	<g>
		<path class="st12" d="M345.2,286.4c3.9,20.9,6.2,47.5,7,68.7l-0.3-0.5c2.1,2.9,4.6,3.9,7.5,6.1L358,359
			c2.3-13.3,2.5-32.2,1.5-48.7c-0.3-5.7-1.1-12.1-5.5-15.5l2.6,5c-0.2-4.7-0.3-9.3-0.5-14c-2.9,0.4-5.7,1.2-8.4,2.3
			c-0.3,0.1-0.6,0.2-0.8,0.1s-0.3-0.6,0-0.7c0.4,2,0.7,4.1,0.8,6.2"/>
		<g>
			<path class="st12" d="M343.9,286.8c3.5,22.6,5.5,45.5,6.3,68.4c1.2-0.3,2.5-0.7,3.7-1c-0.1-0.2-0.2-0.3-0.3-0.5
				c-1,0.8-2.1,1.6-3.1,2.4c2.2,2.7,5,4.4,7.9,6.4c2,1.4,3.7-1.5,2.4-3.1c-0.4-0.5-0.9-1.1-1.3-1.6c0.2,0.6,0.3,1.3,0.5,2
				c2-11.9,2.4-24.1,2.2-36.1c-0.1-9.5,1.3-23.2-6.6-30.1c-1.8-1.6-4.6,0.4-3.4,2.6c0.9,1.7,1.8,3.4,2.6,5c1,1.9,4.1,1,4-1.1
				c-0.2-4.7-0.3-9.3-0.5-14c0-1.5-1.4-2.3-2.8-2.1c-2.9,0.5-5.8,2-8.6,2.3c0.6,0.4,1.3,0.7,1.9,1.1c-0.1-0.1-0.1-0.2-0.2-0.4
				c0,0.7,0,1.5,0,2.2c0.1-0.1,0.1-0.2,0.2-0.3c-1.3-0.2-2.7-0.4-4-0.5c0.3,1.9,0.6,3.7,0.8,5.6c0.3,2.6,4.4,2.8,4.3,0
				c-0.1-2.3-0.4-4.5-0.8-6.7c-0.4-1.9-3.1-2-4-0.5c-0.1,0.1-0.1,0.2-0.2,0.3c-0.4,0.7-0.4,1.5,0,2.2c0.1,0.1,0.1,0.2,0.2,0.4
				c0.4,0.6,1.1,1.2,1.9,1.1c3.3-0.4,6.5-1.9,9.8-2.5c-0.9-0.7-1.8-1.4-2.8-2.1c0.2,4.7,0.3,9.3,0.5,14c1.4-0.4,2.7-0.7,4-1.1
				c-0.9-1.7-1.8-3.4-2.6-5c-1.1,0.9-2.3,1.8-3.4,2.6c4.9,4.3,4.8,11.4,5.1,17.4c0.3,6.8,0.5,13.6,0.4,20.4
				c-0.1,6.1-0.4,12.3-1,18.4c-0.5,4.2-1.6,6.4,1,9.6c0.8-1,1.6-2.1,2.4-3.1c-2.5-1.8-5.1-3.3-7.1-5.7c-1.5-1.8-4.1,0.5-3.1,2.4
				c0.1,0.2,0.2,0.3,0.3,0.5c0.9,1.7,3.8,1,3.7-1c-0.9-23.1-2.8-46.5-7.6-69.1C346.1,284.4,343.6,285.1,343.9,286.8L343.9,286.8z"/>
		</g>
	</g>
	<g>
		<path class="st12" d="M336.2,286.5c1.3,1.1,1,2.9,0.7,4.4c-0.8,3.4-1.6,6.7-2.5,10.1l0.9-5.6c1.4,21.9-1,46.1-5.8,64.6l1.8-3.2
			c-2,0.4-4.1,1.5-5.6,0.5l-0.3-0.6c-1.2-23-1.6-46-0.9-72l0-0.5c0.3-0.9,1.8-0.9,2.9-0.7c2.9,0.4,5.7,0.8,8.5,1.2"/>
		<g>
			<path class="st12" d="M335.4,287c2,2.8-1.4,10.6-2.1,13.7c0.8,0.2,1.6,0.4,2.4,0.7c0.3-1.9,0.6-3.7,1-5.6
				c-0.8-0.1-1.7-0.2-2.5-0.3c1.1,21.5-0.9,43.3-6.3,64.1c-0.5,1.9,2.3,3.2,3.3,1.4c0.6-1.1,1.2-2.1,1.8-3.2c0.8-1.4-0.5-3-2-2.6
				c-1.2,0.3-2.5,0.6-3.7,0.9c0-0.4,0-0.8,0-1.1c-0.6-1-0.2-3.8-0.2-5.2c-0.1-3.5-0.3-6.9-0.4-10.4c-0.2-7.3-0.4-14.7-0.4-22
				c-0.1-7.4,0-14.7,0.1-22.1c0-1.8-0.9-9.4,0.2-10.7c-0.4,0.4,8.8,1.7,9.5,1.8c1.9,0.3,2.4-3.1,0.5-3.4c-4.4-0.7-13.5-4.4-13.9,2.6
				c-0.6,10.8-0.4,21.8-0.2,32.6c0.1,9.9,0.4,19.9,0.9,29.8c0.1,2.5-0.7,8,1,10.2c1.8,2.3,5.4,1,7.7,0.4c-0.7-0.9-1.4-1.8-2-2.6
				c-0.6,1.1-1.2,2.2-1.7,3.2c1.1,0.5,2.2,0.9,3.3,1.4c5.3-21.1,6.9-43.4,5.4-65.1c-0.1-1.3-2.3-1.9-2.5-0.3
				c-0.3,1.9-0.6,3.8-0.8,5.6c-0.2,1.5,2,2.2,2.4,0.7c1-4.2,4.5-11.5,1.5-15.3C336.3,284.9,334.6,285.9,335.4,287L335.4,287z"/>
		</g>
	</g>
</g>
<g>
	<g>
		<path class="st12" d="M199.2,282c-9.2,23.6-18.7,49.6-24,74.4l0.4-0.5c-3.2,2.9-6.9,0-10.8,1.9l1.9-1.6
			c2.1-17.9,6.3-29.5,10.4-46.9c1.6-6.6,3.9-13.9,10-16.9l-4.3,5.3c1.2-5.4,1.6-16.3,2.7-21.7c3.5,1.1,6.8,2.7,9.9,4.6
			c0.3,0.2,0.7,3.5,1,3.4c0.4-0.1,0.5-3.7,0.2-3.9c-0.9,2.3-0.9,10-1.5,12.4"/>
		<g>
			<path class="st12" d="M197.9,281.6c-10,24-19.1,48.7-24.6,74.2c-0.4,1.8,1.9,3.5,3.3,1.9c0.1-0.2,0.3-0.4,0.5-0.5
				c1.3-1.6-0.4-4.4-2.4-3.1c-2.9,2-7.1,0.5-10.4,1.6c0.6,1.1,1.3,2.2,1.9,3.3c3.8-3.2,3.1-7.7,4-12.4c1.1-6.2,2.6-12.3,4.2-18.4
				c1.6-6.2,3.3-12.4,4.8-18.6c1.5-6,3.3-12.4,9.1-15.6c-0.9-1.1-1.7-2.3-2.6-3.4c-1.4,1.8-2.9,3.5-4.3,5.3c1.2,0.7,2.4,1.4,3.6,2.1
				c1.4-7.2,1.4-14.5,2.8-21.7c-0.9,0.5-1.8,1-2.7,1.5c2.4,0.8,6.6,1.9,8.3,3.9c0.7,0.9,0.6,2.1,1.3,3.1c0.9,1.3,3,1.6,3.8,0
				c0.8-1.5,1-4,0.4-5.5c-0.8-2-3.5-2.2-4.2,0c-1.3,4-0.8,8.3-1.5,12.4c-0.5,2.6,3.5,3.9,4.1,1.1c0.9-4.1,0.4-8.4,1.6-12.4
				c-1.4,0-2.8,0-4.2,0c0.2,0.4,0.2,1.8,0.1,2.2c1.3,0,2.5,0,3.8,0c-1-1.4-0.5-2.9-1.8-4.1c-2.5-2.4-7.2-3.7-10.4-4.8
				c-1.1-0.4-2.5,0.4-2.7,1.5c-1.4,7.2-1.3,14.5-2.7,21.7c-0.4,1.9,2.1,3.9,3.6,2.1c1.4-1.8,2.9-3.6,4.3-5.4
				c1.5-1.8-0.3-4.6-2.6-3.4c-10.4,5.8-11.4,20.1-14,30.4c-1.7,6.3-3.4,12.7-4.7,19.1c-0.7,3.4-1.3,6.8-1.8,10.2
				c-0.4,2.8,0,4.5-2.2,6.3c-1.5,1.3,0.1,3.9,1.9,3.3c3.9-1.3,7.7,0.4,11.3-2.1c-0.8-1-1.6-2.1-2.4-3.1c-0.1,0.2-0.3,0.4-0.4,0.5
				c1.1,0.6,2.2,1.3,3.3,1.9c5.5-25.5,14.6-50,23.4-74.5C201,280.7,198.5,280.1,197.9,281.6L197.9,281.6z"/>
		</g>
	</g>
	<g>
		<path class="st12" d="M210.4,281.4c-1.5,1.4-1,3.4-0.5,5.1c1.1,3.9,2.3,7.7,3.5,11.5l-1.4-6.5c-0.4,23.6,3.1,47.2,10.3,69.9
			L220,358c2.3,0.4,4.8-0.3,6.5-1.6l0.7,7.2c0-28.4-1-56.8-3.2-85.1l-0.1-0.6c-0.4-1-2.1-0.9-3.4-0.7c-3.3,0.6-6.6,1.3-9.9,1.9"/>
		<g>
			<path class="st12" d="M209.5,280.9c-3.1,4.5,1.3,12.9,2.6,17.5c0.4,1.5,2.7,0.9,2.4-0.6c-0.4-2.1-0.9-4.3-1.3-6.5
				c-0.3-1.5-2.5-1.1-2.5,0.3c-0.5,23.9,2.8,47.6,9.9,70.4c1.1-0.5,2.2-0.9,3.2-1.4c-0.7-1.2-1.5-2.4-2.2-3.6
				c-0.5,0.9-1,1.8-1.5,2.7c2.8,0.2,5.1-0.3,7.4-1.8c-0.9-0.5-1.8-1-2.7-1.6c0.2,2.4,0.5,4.8,0.7,7.2c0.2,2.3,3.6,2.4,3.6,0
				c0.1-20.1-0.4-40.3-1.4-60.4c-0.3-5-0.6-9.9-0.9-14.8c-0.2-3,0.4-8-0.9-10.8c-2.3-5-11.9-0.8-15.7,0c-2.2,0.5-1.2,3.7,0.9,3.3
				c1.9-0.4,3.9-0.7,5.8-1.1c0.8-0.1,5.4-1,5.1-1.1c0-0.5,0.1-0.5,0.1-0.1c0.1,1.3,0.2,2.6,0.3,4c0.1,2,0.3,4,0.4,5.9
				c0.6,8.2,1,16.5,1.4,24.7c0.8,16.8,1.2,33.7,1.2,50.5c1.2,0,2.4,0,3.6,0c-0.3-2.4-0.5-4.8-0.8-7.2c-0.1-1.3-1.5-2.4-2.7-1.6
				c-1.7,1.1-3.6,1.5-5.6,1.4c-1.4-0.1-2.2,1.6-1.5,2.7c0.8,1.2,1.5,2.4,2.2,3.6c1,1.7,3.9,0.6,3.2-1.4
				c-7.1-22.5-10.8-45.8-10.7-69.5c-0.8,0.1-1.7,0.2-2.5,0.3c0.5,2.1,0.9,4.3,1.4,6.4c0.8-0.2,1.6-0.4,2.4-0.6
				c-1.1-3.5-5.6-12.4-3.3-15.8C212,280.8,210.2,279.9,209.5,280.9L209.5,280.9z"/>
		</g>
	</g>
</g>
<g>
	<path class="st13" d="M341.8,274.8c0,0.4-0.1,0.9-0.1,1.3v0c0,0.1,0,0.2,0,0.4c-0.6,4.5-1,9.6-1.3,12.2c-0.1,1-0.2,1.6-0.4,1.6
		c0,0-2.3-0.8-2.3-0.8l-3.2-0.9l-6.5-1c-1.2-0.1-2.1-0.1-3-0.1c-3.9,0-3.9,0.8-3.9,0.2l1.8-27.9c0.9-10.4,1-19,1-24.1
		c0-3.1,0.1-4.9,0.4-4.9H340c0.8,0,1.4,0.7,1.4,1.5v34C341.5,266.5,342.2,270.3,341.8,274.8z"/>
	<path class="st14" d="M342.4,277.3l1.3,13L342.4,277.3c-0.9,6.3-1.2,13.8-1.6,13.8l-0.9-5.5l-5-40.6L342.4,277.3z"/>
	<path class="st13" d="M361,262.5c-0.4,10.3-1.9,17.5-2.3,27.8c0,0.1,0,0.3-0.1,0.4c-0.2,0.1-0.9-0.6-4.1-1l-4.9,0.1
		c-4.1,0.1-7.2,1.6-7.4,0.5l-0.4-9.4l-0.2-3.6l-0.1-1.1l-0.4-3.5l-2.8-27.7l-1.5-9.2l-0.6-3.5c0-0.2,0-0.5,0-0.7
		c0-0.1,0-0.2,0.1-0.3c0.1-0.1,0.1-0.3,0.2-0.4c0.3-0.5,0.8-0.8,1.5-0.9l16.4-1.5c1.4-0.1,2.5,1.2,3.4,3.3c0.5,1.1,0.9,2.5,1.3,4
		c1.2,4.9,1.8,11.2,1.8,14.9C360.9,253.5,361.1,259.6,361,262.5z"/>
</g>
<g>
	<path class="st15" d="M223,280.5c-0.9,0-2.1,0-3.4,0.1l-7.4,1.1l-2.1,1c0,0-2.6,0.8-2.7,0.8c-0.1,0-0.3-0.6-0.4-1.6
		c-0.4-2.6-1-4-2.4-10.6c0-0.1-0.2-0.8-0.4-1.4c-0.1-0.5-0.2-0.9-0.2-0.9v0c-0.1-0.5-0.4-1.6-0.4-2.1c-1-6-1.6-8.6-1.6-8.9
		l-3.6-33.1l-0.2-1.9c0-0.2,0-0.3,0.1-0.5c0-0.1,0.1-0.2,0.1-0.3c0.3-0.4,0.8-0.7,1.4-0.7l24.1,0.8c0.2,0,0.3,0.5,0.3,1.4
		c0,0.4,0.1,0.8,0.1,1.2c0,0.7,0,1.5,0.1,2.5c0.1,5.2,0.1,14,1.2,24.8l2.1,28.7C227.6,281.4,227.5,280.5,223,280.5z"/>
	<path class="st15" d="M209.4,224.8c0,0.1,0,0.2,0,0.3l-0.6,3.4l-1.6,8.9l-2.3,26.8l-0.4,3.4l-0.1,1.1l-0.1,1.2l-0.1,2.3l-1.5,9.8
		c-0.2,1.1-5.8-1.1-10.3-1.2l-5.4-0.1c-3.4,0.5-4.3,1.1-4.5,1c-0.1-0.1-0.1-0.3-0.1-0.4c-0.4-10-0.8-16.2,0-26.9
		c0.2-2.8,0.4-4.3,0.7-8.6c0.7-6.1,2-9.5,2.7-14.4c0.4-2.7,0.4-2.7,0.7-3.9c0.3-1,0.5-1.9,0.7-2.6c0.2-0.8,0.4-1.5,0.6-2
		c0.5-1.2,0.9-1.5,1.7-1.5l8.8,0.7l5.3,0.4l3.8,0.3c0.7,0.1,1.2,0.4,1.6,0.8c0.1,0.1,0.2,0.3,0.3,0.4c0,0.1,0.1,0.2,0.1,0.3
		C209.4,224.6,209.4,224.7,209.4,224.8z"/>
</g>
<path class="st16" d="M225.7,224.5c-0.3-0.3-0.8-0.6-1.6-0.9c0,0.4,0.1,0.8,0.1,1.2h-37c0.2-0.8,0.4-1.5,0.6-2
	c-6.4,1.3-0.6,0.7,0.6-12c0.1-1.4,0.2-2.8,0.2-4.2h36l0.4,12.7C225,222.3,225.4,223.8,225.7,224.5z"/>
<path class="st12" d="M351.4,177.8c-5.6,4.6-3.9,4.6-9.6,4.6c-4.8,0-3.4,0-7.5-2.3c0-1.1-6.9-5.8-4.9-9.6c2.3-4.5,3.2-3.5,4.6-5.3
	c1.6-2.1,1.5-4.6,1.5-8.4c0-0.4,0-0.9-0.1-1.4c0-0.1,0-0.3,0-0.5c-0.2-2.2-0.7-4.6-0.7-6.6h10.5v7c0,2.8,1.5,6.9,1.5,6.9
	c2.3,3.9,5,3.4,8,6.9C356.3,170.9,355,174.1,351.4,177.8z"/>
<g>
	<path class="st16" d="M359,232.1c-0.4-0.1-0.7-0.3-1.1-0.4c0.5,1.1,0.9,2.5,1.3,4h-35.2c0-3.1,0.1-4.9,0.4-4.9h0
		c0.1-1.5,0.1-3,0.2-4.6h35l0.1,3.4c0.1,2,0.3,2.8,0.3,3.2C360,232.5,359.7,232,359,232.1z"/>
	<path class="st17" d="M354.3,204.9l-28.7-3.8l0,0l-1.4-0.2l-10.3-1.4c-0.7-0.1-1.1-0.7-1-1.4l3.6-23.6c0.4-2.6,2.5-4.6,5.1-4.9
		l11.2-4.2l8.6,16.1l0,0.1l10.7,19.2L354.3,204.9z"/>
	<path class="st17" d="M360.1,232.7c-0.1-0.2-0.4-0.7-1.1-0.7c-0.4-0.1-0.7-0.3-1.1-0.4c-4.7-1.6-9.4-1.8-14.2-1.6
		c-1.9,0.1-3.6,0.3-5.3,0.7c-0.6,0.1-1.3,0.3-1.9,0.4c-3.9,1-7.7,2.6-12.3,4.5c0.1-1.6,0.2-3.2,0.3-4.9c0.1-1.5,0.1-3,0.2-4.6
		c0.2-8,0.3-16.6,0.8-23.7l0.1-1.4l0-0.3l1.3-19.5h31.6l0.6,19.5l0,1l0.7,24.4l0.1,3.4C359.9,231.5,360,232.4,360.1,232.7z"/>
</g>
<polygon class="st18" points="326.8,181.6 325.6,201.1 325.5,202.7 325.4,202.7 325.5,201.1 324.2,200.9 "/>
<g>
	<path class="st19" d="M327.3,203.5l-0.3,3.1l-2.7,28.1c0,1.7-1.4,3.1-3.1,3.1h-22.5c-1.7,0-3.1-1.4-3.1-3.1l-2.7-28.1l-0.3-3.1
		L327.3,203.5L327.3,203.5z"/>
	<rect x="289.3" y="195.4" class="st19" width="41.3" height="8.1"/>
	<polygon class="st20" points="327.3,203.5 327,206.6 292.9,206.6 292.6,203.5 	"/>
	<path class="st21" d="M330.6,195.4v8.1h-3.3l-0.3,3.1l-2.7,28.1c0,1.7-1.4,3.1-3.1,3.1h-11.2v-42.4H330.6z"/>
</g>
<path class="st22" d="M349.7,147.5v0.4c-1.3,1.3-2.7,2.3-4.5,3.2v4.3h-9.8c0-0.1,0-0.3,0-0.5c-1.5,0.3-3,0.5-4,0.5
	c-0.9,0-1.5-0.1-1.7-0.3c-1.7-1.8-3.5-4.6-5-7.6H349.7z"/>
<g>
	<path class="st12" d="M364.5,197.2c0,0.1,0,0.1,0,0.2c0,0.2-0.1,0.4-0.1,0.6v0c-0.5,3.4-1.1,6.8-1.9,10.4
		c-0.9,4.2-1.7,9.1-2.8,12.8c-0.2,0.8-0.9,1.3-1.7,1.5c-0.2,0.1-0.4,0.1-0.6,0.1c-0.1,0-0.1,0-0.2,0c-1.7-0.2-3.8-0.5-5.5-0.7
		c-0.1-2.2-0.2-4.9,0-7.7c0-0.9,0.1-1.8,0.2-2.6c0.3-3.9,0.9-8.2,1.6-11.8c0,0,0-0.1,0-0.1c0.2-0.9,0.4-1.7,0.6-2.4c0,0,0-0.1,0-0.1
		c0.1-0.3,0.2-0.7,0.3-1v0c0.1,0,0.2,0,0.3,0c0.1,0,0.1,0,0.2,0c1.4,0.1,2.6,0.2,3.5,0.3C360.5,197,361.9,197.1,364.5,197.2
		C364.4,197.2,364.4,197.2,364.5,197.2L364.5,197.2z"/>
	<path class="st12" d="M357.7,222.8l-37.5,0.4c0-3.5,0.2-4.5,0.3-8c5.9-1.1,10.5-1.8,21.5-2.4c4.4-0.2,8.3,0.6,11.9,1.2
		C354,217.1,357.5,219.9,357.7,222.8z"/>
	<g>
		<path class="st23" d="M317.8,224.2h-10.1c-2.4,0-4.3-1.9-4.3-4.1v-3.8c0-2.3,1.9-3.3,4.3-3.3c0,0,4.8-0.3,4.8-0.3
			c0.1,0-1.8-2.4-0.3-3.4c1.3-0.9,2.2,0.9,3.5,1.7c2.1,1.3,1.5,1,2.1,1.3c2.3,0.9,2.9,0.8,3.5,1.2c0.9,0.6,1.2,1.2,1.3,1.4
			c2.1-0.2,3.4-0.3,2.1-0.1c-1.6,0.2,0,7.3,0,8.8c-0.1,0.5-0.7,0.2-3,0.1C319.5,223.5,318.1,224.2,317.8,224.2z"/>
	</g>
</g>
<polygon class="st18" points="330.1,150 325.5,161.1 320.3,140.5 324.6,137.2 "/>
<path class="st12" d="M351.8,145.3c-0.7,1.1-1.3,1.9-2.1,2.7c-1.3,1.3-2.7,2.3-4.5,3.2c-1.3,0.7-2.7,1.3-4.5,2.1
	c-1.6,0.8-3.6,1.3-5.4,1.7c-1.5,0.3-3,0.5-4,0.5c-0.9,0-1.5-0.1-1.7-0.3c-1.7-1.8-3.5-4.6-5-7.6c-2.1-4.4-3.7-9.3-3.5-12.4
	c0.3-7.5,3-18.4,15.4-18.4c15.5,0,17.8,9.3,17.8,18.6C354.3,136.1,354.6,140.7,351.8,145.3z"/>
<g>
	<path class="st18" d="M364.8,202.1c0,0.1,0,0.1,0,0.2h0c0,0.2-0.1,0.4-0.1,0.7v0c0,0.1,0,0.1,0,0.1l-6.2-0.4l-4.3-0.3l-2.1-0.1
		l-0.7,0l0.2-0.9l0-0.1l0-0.2h0l1.3,0.1l5.4,0.4l6.5,0.5C364.9,202.1,364.8,202.1,364.8,202.1L364.8,202.1z"/>
	<path class="st17" d="M368,176.5l-2,24.5c0,0.4-0.3,0.8-0.6,1c-0.1,0.1-0.3,0.1-0.5,0.2c-0.1,0-0.1,0-0.2,0c0,0,0,0,0,0l-6.3-0.4
		l-3.5-0.2c-0.1,0-0.1,0-0.2,0l-0.3,0l-2.8-0.2h-0.1l-20-1.3c-0.5,0-0.8-0.4-0.8-0.9l10.6-17.4l0.1-0.1l9.7-15.9l13.4,5.8
		C367.1,172.4,368,173.9,368,176.5z"/>
	<polygon class="st18" points="351.7,201.3 353,201.4 354.2,184 354.3,184 	"/>
</g>
<g class="st1">
	<g>
		<path class="st24" d="M422.8,143.3c1.6,0,1.6-2.5,0-2.5C421.1,140.8,421.1,143.3,422.8,143.3L422.8,143.3z"/>
	</g>
</g>
<g>
	<path class="st10" d="M325.5,161.1c-4-5-6.8-22.6-6.6-29.1c0.1-1.6,0.2-3.2,0.7-4.7c0.9-2.4,2.1-4.3,3.9-6c2.2-2,5.3-4.1,8.1-4.9
		c1.7-0.5,3.6-0.5,5.4-0.4c1.9,0,3.7,0.1,5.6,0.1c6.3,0.1,12.4,10.5,14,15.6c1.2,3.8-0.9,7.9-1.4,11.8c-0.5,4.5-2.8,8.6-5,12.5
		l-0.6-0.5c3.1-3.7,3.7-9.3,2.1-13.9s-3.7-8.6-5.5-13.1c-1.9-4.6-3.5-9.6,0.8-13l-0.2-1.6c0,2.3,2.9,10.6-3,7.6
		c-2-1.1-6.9-1.1-9.1-0.4c-5.8,2.1-10.2,5.3-11.8,11.8C321.3,139.3,323.7,154.6,325.5,161.1L325.5,161.1z"/>
</g>
<path class="st23" d="M297.4,223.6l-3.6,0.3c-1,0.1-2-0.7-2-1.8l-0.5-7.1c-0.1-1.1,0.7-2,1.8-2.1l3.6-0.3c1-0.1,2,0.7,2,1.8l0.5,7.1
	C299.2,222.6,298.4,223.6,297.4,223.6z"/>
<g>
	<path class="st25" d="M360.8,353.7c-3.1,1.5-7,1.2-9.8-0.8c-0.4-0.3-0.9-0.6-1.4-0.7c-0.5,0-1,0.2-1.4,0.4c-3.9,1.9-7.9,2.4-11,5.4
		c-0.5,0.5-1.1,1.1-1.1,1.9c-0.1,0.9,0.6,1.8,1.4,2.2c0.8,0.4,1.8,0.5,2.7,0.5c8,0.3,16,0,23.9-0.8c0.3,0,0.6-0.1,0.9-0.2
		c0.8-0.5,0.5-1.7,0.1-2.5c-1-2.3-2-3-3.1-5.2"/>
</g>
<g>
	<path class="st25" d="M332.7,354c-3.2,1.4-7,1-9.8-1.1c-0.4-0.3-0.1,0.1-0.6,0c-0.5-0.1-1,0.1-1.4,0.4c-4,1.8-8.8,1.4-12,4.4
		c-0.5,0.5-1.1,1.1-1.2,1.8c-0.1,0.9,0.5,1.8,1.4,2.3c0.8,0.4,1.8,0.5,2.7,0.6c8,0.5,16,0.4,23.9-0.2c0.3,0,0.6,0,0.9-0.2
		c0.8-0.5,0.5-1.6,0.1-2.5c-1-2.3-1.9-3-2.9-5.3"/>
</g>
<g>
	<g>
		<path class="st26" d="M404.6,327.2c0.9-4.6,1.8-9.2,2.6-13.8c0.3-1.6,0.6-3.2,1.3-4.5c0.8-1.5,2.1-2.6,2.9-4.2
			c1.7-3.4,0.4-8.2,1.8-11.8c0.5-1.2,1.2-2.2,2.1-2.9c0.7-0.5,1.5-0.8,2.2-1.4c1.6-1.5,1.9-4.5,3.3-6.5c0.9,2.6,1.1,5.6,0.7,8.4
			c-0.3,2.2-1,4.3-1.2,6.5c-0.3,3.7,0.8,7.8-0.5,11c-0.8,2-2.5,3.3-3.5,5.2c-1.4,2.5-1.5,5.7-2.4,8.5c-0.8,2.6-2.3,4.8-4.1,6.2
			c-1,0.8-2.2,1.4-3.4,1.1c-0.3-0.1-0.7-0.2-0.9-0.5c-0.3-0.4-0.4-1-0.4-1.5c-0.2-2.8,0.1-5.5,1-8"/>
	</g>
	<g>
		<path class="st26" d="M393.2,330.9c-2.5-0.6-4-4.2-3.9-7.4c0-0.8,0.1-1.7-0.1-2.5c-0.2-0.7-0.6-1.2-0.9-1.8
			c-1.6-2.1-3.6-4.1-4.4-6.9c-0.9-3.2,0-6.9-1-10c-1-3.3-4.5-5.2-5.3-8.5c-0.7-2.7,0.7-5.5,0.9-8.3c0.2-3-0.3-6-1.5-8.6
			c1.5,3.8,5.2,5.2,7.3,8.5c2.2,3.5,2.2,8.6,4.7,11.7c0.5,0.7,1.2,1.2,1.7,1.9c0.7,0.9,1.2,2.1,1.5,3.3c0.6,1.9,0.9,3.9,0.9,5.9
			c0,2.4-0.4,4.9,0.1,7.3c0.5,2.4,1.8,4.2,2.5,6.5c0.8,2.6,0.9,5.1,2.1,7.6c0.3,0.6,0.6,1.1,1,1.5c0.9,0.7,2.1,0.3,2.9-0.5
			c2.9-2.5,3.5-7.5,3.2-12c-0.3-4.5-1.1-9-0.2-13.3c0.3-1.3,0.7-2.5,0.7-3.8c0.1-2.5-1.2-4.8-2-7.1c-0.8-2.6-0.9-5.5-0.4-8.1
			c0.8-3.4,2.7-6.9,1.6-10.2c-0.7-2-2.3-3.5-2.7-5.6c-0.5,2.6-1.6,5-3.1,6.8c-1.9,2.3-4.5,4.1-5,7.4c-0.4,2.9,1,5.8,0.9,8.7
			c-0.1,1.6-0.6,3.1-0.4,4.8c0.2,2.6,2.2,4.6,2.7,7.1c0.8,4-2,7.5-2.4,11.5c-0.3,2.8,0.6,5.4,1.6,7.8c0.8,1.7,2.3,4.3,1.3,6.3
			c-0.3,0.6-0.9,1-1.5,1.2c-1.8,0.5-3.9-0.6-4.9-2.7s-0.8-5,0.4-6.7"/>
	</g>
	<g>
		<g>
			<g>
				<path class="st27" d="M378.3,279.4c1.8,4.4,3.8,8.4,4.4,13.2c0.6,4.4,0.5,8.5,2.2,12.7c1.4,3.4,3.5,6.5,5.1,9.8
					c2.7,5.3,2.8,10.3,2.1,16.1c-0.2,2,3.3,2.5,3.6,0.5c0.7-4.8,1-9.4-0.8-14c-1.5-4.1-4.2-7.7-6.1-11.6c-4.4-8.7-1.4-19.9-9.1-27.3
					C379.1,278.1,377.9,278.6,378.3,279.4L378.3,279.4z"/>
			</g>
		</g>
		<g>
			<g>
				<path class="st27" d="M398.5,327.8c1-0.8,0.9-7.9,1.2-9c0.7-2.4,2-4.5,2.6-6.9c1.2-4.5-0.3-8.5-1.5-12.8
					c-0.8-2.6-1.6-5.4-1.5-8.2c0-3.5,1.7-6,3.3-9c2-3.8,2.9-8.4,1.4-12.5c-0.6-1.7-3.1-1.5-3.2,0.4c-0.1,4.6-0.3,8-2.6,12.3
					c-1.2,2.2-2.2,4.2-2.5,6.7c-0.8,7,4,13,4,19.8c0,3.4-1.9,6.4-2.8,9.5c-0.7,2.6-1,5.5-0.7,8.2c0.2,1.5,1.5,5.6,3.6,3.2
					C400.4,328.6,399.4,327.1,398.5,327.8L398.5,327.8z"/>
			</g>
		</g>
		<g>
			<g>
				<path class="st27" d="M401,268.5c-1.1,3.7-2.5,7.3-5.1,10.1c-1.2,1.3-2.6,2.3-3.2,4c-0.6,1.8,0,3.7,0.2,5.6
					c0.4,2.5,0.2,4.5-0.1,7c-0.2,1.4-0.6,2-0.5,3.4c0.1,2.1,1.2,3.5,2,5.4c1.9,4.6-0.6,7-1.4,11.2c-1,5.9,1.4,11.5,3.9,16.6
					c1,2.2,4.3,0.3,3.3-1.9c-1.6-3.3-3.4-6.9-3.6-10.7c-0.2-3.5,1.1-6.1,2-9.3c0.5-1.9,0.5-3.6-0.1-5.4c-1.2-3.8-2.9-4.7-2.2-9.2
					c0.3-2,0.6-3.5,0.3-5.6c-0.2-1.6-1.2-3.9-1-5.3c0.3-1.6,1.9-3.1,2.9-4.3c2.8-3.3,4.2-7.2,4.6-11.4
					C403.1,267.6,401.3,267.4,401,268.5L401,268.5z"/>
			</g>
		</g>
		<g>
			<g>
				<path class="st27" d="M401.8,268c-0.7,2.3-0.2,4,0.6,6.2c1.6,4.5,1.3,6.6-0.6,11c-2,4.7-0.6,7.7,1.4,12.1
					c1.7,3.9,0.1,6.1-0.8,9.7c-0.6,2.3-0.2,4.7,0.3,7c1.1,4.7,1.8,8-0.8,12.5c-1.4,2.5-3.3,4.5-4,7.3c-0.4,1.5,1.4,2.4,2.5,1.4
					c4.1-3.4,7.6-10.2,7.3-15.5c-0.2-2.8-1.4-5.5-1.8-8.2c-0.6-4,1.9-6.4,2-10.1c0.1-2.4-1-4.5-2-6.6c-1-2.3-2.1-4-1.5-6.8
					c0.3-1.5,1.4-2.9,1.9-4.3c2.1-5.8-1.5-10.2-2.7-15.8C403.4,267,402.1,267.1,401.8,268L401.8,268z"/>
			</g>
		</g>
		<g>
			<g>
				<path class="st27" d="M376.7,277.5c1.4,3.7,5.2,5.2,7,8.5c2.4,4.3,0.5,8.2,4.1,11.9c2.5,2.6,3.7,4.3,3.5,8.1
					c-0.1,2.3-0.6,4.5-0.4,6.7c0.2,1.8,0.7,3.2,1.4,4.9c1.2,3.1,2,6.2,2.8,9.4c0.5,1.6,2.9,1.3,3-0.4c0.1-5.6-3.5-10.3-3.6-15.8
					c-0.1-4.5,1.2-8.9-1.8-12.7c-2.3-2.9-3.9-2.6-4.8-7.1c-0.3-1.8-0.1-3.5-0.9-5.2c-1.7-3.9-6.1-6.4-9.1-9.3
					C377.5,276.2,376.4,276.7,376.7,277.5L376.7,277.5z"/>
			</g>
		</g>
		<g>
			<g>
				<path class="st27" d="M375.9,278.2c3.2,6.4-2.8,13.2,1.9,19.4c0.6,0.8,1.4,1.4,2,2.2c1.9,2.2,1.8,4.5,1.9,7.2
					c0.2,3-0.1,6.1,1.5,8.9c0.8,1.3,1.1,1.2,2,2.4c1.8,2.3,1.9,3.7,2.4,6.3c0.5,2.3,1.2,4.7,2.9,6.4c3,3,7.5,2.4,9.4-1.5
					c0.9-1.9-1.5-3.3-2.8-1.6c-4.3,5.9-6.2-4.6-6.6-6.4c-0.4-1.7-0.9-3.2-2-4.6c-1.4-1.9-2.7-2.3-3.3-4.9c-0.4-1.6-0.2-3.3-0.3-4.9
					c-0.1-2.2,0-4.4-1-6.5c-0.9-1.8-2.5-2.7-3.6-4.2c-2.6-3.7-1.5-7.3-1-11.4c0.3-3,0.1-6-2.5-7.8
					C376.3,276.5,375.6,277.5,375.9,278.2L375.9,278.2z"/>
			</g>
		</g>
		<g>
			<g>
				<path class="st27" d="M409.1,330.6c2-3.9,4.3-6.5,4.5-11.1c0.1-2.9-0.5-5.7,0.6-8.5c0.9-2.2,2.9-3.7,3.7-6
					c1.7-4.8-1.1-9.1,1.8-13.8c2.1-3.4,4.3-5.7,3.3-9.9c-0.5-1.9-3.7-1.5-3.5,0.5c0.5,4.9-3.7,7.3-4.7,11.7c-1.2,5.1,1.3,9-2,13.7
					c-2.2,3.2-2.5,6.1-2.3,9.9c0.2,3.3-0.1,5.6-1.5,8.6c-0.8,1.8-1.4,2.5-1.5,4.4C407.4,331,408.7,331.4,409.1,330.6L409.1,330.6z"
					/>
			</g>
		</g>
		<g>
			<g>
				<path class="st27" d="M420.1,280.7c-1.3,5.2-6.1,5.8-8.5,9.9c-2.5,4.3,0.6,9.2-2.4,13.3c-2.2,3-3.8,4.8-3.9,8.7
					c-0.1,3.9-0.2,6.9-2.1,10.4c-0.9,1.8-1.6,2.4-1.4,4.5c0.2,1.8,2.4,2.1,3,0.4c0.9-2.2,2.4-4,3.2-6.2c0.9-2.4,0.9-4.7,1-7.2
					c0.1-1.8-0.1-3.9,0.7-5.5c0.6-1.1,1.6-2,2.4-3c1-1.4,1.7-2.5,2-4.2c0.3-1.9-0.2-3.6-0.1-5.5c0.1-3.8,1.9-5.3,4.6-7.4
					c2.7-2.2,4.4-4.6,3.8-8.1C422,279.6,420.3,279.7,420.1,280.7L420.1,280.7z"/>
			</g>
		</g>
		<g>
			<g>
				<path class="st27" d="M406,328.6c3.5,0.6,6.5-1.5,8.5-4.4c1.2-1.8,1.9-3.8,2.3-5.9c0.2-1.4,0-3.7,0.5-5c0.6-1.4,1.4-1.6,2.4-2.6
					c4.4-4.5,1.1-10.1,2.6-15.5c1.4-5,2.8-8.6,0.5-13.7c-0.7-1.7-3.4-0.5-2.9,1.2c0.8,2.8,1.3,5.6,0.5,8.4c-0.5,1.9-1.8,3.6-2.1,5.6
					c-0.2,1.4,0.1,2.7,0.3,4.1c0.6,3.9,0.3,5.8-2.3,8.6c-1.9,2.1-2.1,3.9-2.3,6.7c-0.4,5.4-3.1,9-8,11
					C405.2,327.4,405.3,328.5,406,328.6L406,328.6z"/>
			</g>
		</g>
	</g>
</g>
<g>
	<g>
		<path class="st26" d="M443.5,326.8c-0.7-4.7-1.4-9.4-2.1-14.2c-0.2-1.6-0.5-3.3-1.2-4.6c-0.8-1.6-2.1-2.7-2.8-4.4
			c-1.6-3.5,0-8.3-1.3-12.1c-0.4-1.2-1.2-2.3-2.1-3c-0.7-0.6-1.6-0.9-2.2-1.6c-1.6-1.6-1.8-4.7-3.1-6.7c-1,2.6-1.4,5.6-1.1,8.5
			c0.2,2.2,0.9,4.4,1,6.6c0.2,3.8-1.2,7.8,0.1,11.2c0.8,2.1,2.4,3.5,3.4,5.5c1.3,2.6,1.3,5.9,2.1,8.8c0.7,2.6,2.1,4.9,3.9,6.5
			c1,0.9,2.2,1.5,3.5,1.3c0.4-0.1,0.7-0.2,1-0.5c0.3-0.4,0.4-1,0.5-1.5c0.4-2.8,0.1-5.6-0.6-8.2"/>
	</g>
	<g>
		<path class="st26" d="M455.1,331.1c2.6-0.5,4.3-4,4.4-7.3c0-0.9-0.1-1.7,0.2-2.5c0.2-0.7,0.6-1.2,1-1.7c1.8-2.1,3.9-4,4.8-6.7
			c1.1-3.2,0.3-7,1.4-10.1c1.2-3.3,4.9-5.1,5.9-8.4c0.8-2.7-0.5-5.6-0.5-8.5c-0.1-3,0.6-6,1.9-8.7c-1.7,3.8-5.6,5-7.9,8.2
			c-2.4,3.4-2.7,8.6-5.4,11.6c-0.6,0.7-1.3,1.2-1.9,1.9c-0.8,0.9-1.3,2.1-1.7,3.3c-0.7,1.9-1.1,3.9-1.2,6c-0.1,2.5,0.2,5-0.4,7.4
			c-0.6,2.5-2.1,4.2-2.9,6.5c-0.9,2.6-1.2,5.1-2.5,7.6c-0.3,0.5-0.6,1.1-1.1,1.4c-1,0.7-2.1,0.2-3-0.6c-2.9-2.6-3.3-7.8-2.8-12.3
			c0.5-4.5,1.6-9.1,0.8-13.5c-0.2-1.3-0.6-2.6-0.6-3.9c0-2.5,1.5-4.8,2.4-7.1c0.9-2.6,1.2-5.5,0.7-8.2c-0.6-3.5-2.4-7.1-1.2-10.4
			c0.8-2,2.6-3.4,3-5.6c0.4,2.7,1.5,5.1,2.9,7.1c1.8,2.4,4.5,4.4,4.8,7.7c0.3,2.9-1.3,5.8-1.3,8.7c0,1.6,0.5,3.2,0.2,4.8
			c-0.4,2.6-2.4,4.5-3.1,7.1c-1,4,1.7,7.7,1.9,11.8c0.2,2.8-0.9,5.5-2,7.8c-0.9,1.7-2.5,4.2-1.6,6.3c0.3,0.7,0.9,1.1,1.5,1.3
			c1.9,0.6,4.1-0.4,5.2-2.5s1.1-5-0.1-6.8"/>
	</g>
	<g>
		<g>
			<g>
				<path class="st27" d="M471.4,278.7c-8,7.1-5.5,18.2-10.2,26.7c-2.2,4-5.2,7.5-7,11.7c-2,4.6-2.1,9.2-1.6,14.1
					c0.2,2.3,3.8,2.3,3.6,0c-0.5-5.6-0.3-10.5,2.6-15.6c2-3.6,4.5-6.8,6.2-10.5c1.4-3.1,1.8-6.2,2.2-9.5c0.7-6,3-10.6,5.5-15.9
					C473,278.9,472.1,278.1,471.4,278.7L471.4,278.7z"/>
			</g>
		</g>
		<g>
			<g>
				<path class="st27" d="M448.5,329.2c2,2.4,3.4-1.5,3.7-3c0.5-2.8,0.3-5.7-0.3-8.5c-0.8-3.3-2.6-6.3-2.4-9.8
					c0.3-6.6,5.2-12.3,5-19.1c-0.1-2.5-0.9-4.7-2-6.9c-2.3-4.8-2.7-8.1-2.5-13.3c0.1-2-2.5-2-3.2-0.4c-1.7,4.1-0.9,8.8,0.9,12.8
					c1.3,2.8,2.9,5.4,3,8.6c0,2.9-1,6.2-2,8.9c-1.5,4.4-3.2,8.2-2.1,12.9c0.5,2.5,1.8,4.7,2.4,7.2c0.6,2.2-0.4,8.2,1,9.3
					C448.9,327,447.7,328.2,448.5,329.2L448.5,329.2z"/>
			</g>
		</g>
		<g>
			<g>
				<path class="st27" d="M447.8,267.6c0.2,4.7,1.8,8.3,4.5,12.1c2.2,3.1,2.4,5.3,1.5,8.8c-0.5,2.3-0.3,4.2-0.1,6.5
					c0.1,2.3-0.2,4.3-1.1,6.4c-0.4,0.9-1.1,1.7-1.5,2.7c-0.6,1.6-0.8,3.2-0.5,4.9c0.5,3.6,2.1,6.2,1.7,10.1c-0.4,4-2.3,7.5-4.2,10.9
					c-1.2,2.1,2.1,4,3.3,1.9c2.7-5.1,5.4-10.5,4.7-16.4c-0.5-4-2.8-6.9-1.3-11.1c0.8-2.1,2.4-3.6,2.6-5.9c0.4-3.4-1-6.1-0.4-9.8
					c0.4-1.9,1.2-4,0.8-6c-0.4-2.1-1.9-3.1-3.2-4.7c-2.6-3-3.8-6.8-4.8-10.5C449.5,266.3,447.7,266.5,447.8,267.6L447.8,267.6z"/>
			</g>
		</g>
		<g>
			<g>
				<path class="st27" d="M447.2,266.8c-1.3,5-5.1,9.2-3.8,14.6c0.5,2,1.8,3.8,2.1,5.7c0.4,2.3-0.6,4.3-1.6,6.2
					c-1.1,2-2.4,4-2.6,6.4c-0.3,3.1,1.7,5.5,1.9,8.5c0.2,3.6-2.1,7-2.5,10.6c-0.6,5.5,2.8,12.6,6.9,16.3c1.1,1,2.8,0,2.5-1.4
					c-0.7-2.9-2.5-5-3.8-7.5c-2.5-5-1.5-7.9-0.2-12.8c0.6-2.4,1.1-4.7,0.6-7.1c-0.3-1.4-1.2-2.7-1.6-4.1c-0.6-2.7,0.4-4.2,1.5-6.4
					c2.4-4.9,3-7.5,1-12.7c-1.7-4.4-0.9-6.2,0.7-10.4c0.8-2.1,1.3-3.6,0.7-5.8C448.7,265.9,447.4,265.9,447.2,266.8L447.2,266.8z"/>
			</g>
		</g>
		<g>
			<g>
				<path class="st27" d="M473.1,276.9c-3.1,2.7-7.7,5-9.7,8.8c-0.9,1.8-0.8,3.5-1.2,5.4c-1,4.6-3.8,4.7-6,7.9
					c-2.3,3.4-1.4,7.6-1.6,11.5c-0.3,5.7-4.2,10.4-4.4,16.2c-0.1,1.8,2.4,2,3,0.4c1.5-4.5,4.1-9.2,4.9-13.9
					c0.9-5.6-1.7-10.4,3.4-14.7c3.2-2.8,3.3-4.7,4.1-8.7c1.2-5.6,6.6-7,8.8-11.8C474.8,277,473.8,276.3,473.1,276.9L473.1,276.9z"/>
			</g>
		</g>
		<g>
			<g>
				<path class="st27" d="M474,277.3c-2.9,1.8-3.1,5.1-2.8,8.3c0.3,3.2,1.3,6.1-0.3,9.1c-1.2,2.2-3.5,3.3-4.8,5.4
					c-2.9,4.5,0,10.8-3.5,15.1c-1.5,1.8-2.9,2.4-3.8,4.8c-0.4,1-0.6,2.1-0.8,3.1c-0.4,1.5-2.8,10.5-6.8,4.5c-1-1.4-3.7-0.5-2.9,1.2
					c1.7,4,5.8,5.4,9.3,2.5c1.9-1.5,2.8-3.7,3.4-5.9c0.8-2.8,0.9-4.8,3-7c0.9-1,1.8-1.7,2.5-2.9c1.3-2.5,1.4-5.3,1.5-8
					c0.1-2.9,0.3-5.3,2.4-7.4c1-1,2.1-1.8,2.9-3c4-5.8-1.4-12.7,2-18.7C475.6,277.7,474.8,276.8,474,277.3L474,277.3z"/>
			</g>
		</g>
		<g>
			<g>
				<path class="st27" d="M440.4,329.6c0-1.5-0.4-2.5-1.1-3.9c-1.3-2.7-1.9-4.8-1.7-7.8c0.4-4.1,0.9-7.6-1.4-11.2
					c-1.7-2.7-2.6-4.4-2.3-7.8c0.2-2.1,0.8-4.2,0.5-6.4c-0.6-4.5-5.1-7.3-4.5-12.1c0.3-2.2-2.8-3.2-3.4-0.9c-1.2,4.2,1.1,6.7,3,10.2
					c2.6,4.8-0.3,9.3,1.3,14.1c0.6,2,2.2,3.3,3.1,5c1.7,3.2,0.7,6.4,0.7,9.8c0,4.7,2.2,7.3,4.1,11.4
					C439.1,330.9,440.4,330.5,440.4,329.6L440.4,329.6z"/>
			</g>
		</g>
		<g>
			<g>
				<path class="st27" d="M427.4,278.9c-0.7,3.5,1,6.1,3.6,8.4c2.5,2.2,4.3,3.9,4.3,7.5c0,2.2-0.8,4.1-0.3,6.3c0.3,1.5,1.1,2.7,2,4
					c0.6,0.9,1.3,1.6,1.8,2.6c1.1,2,0.9,3.9,0.9,6.1c0,2.6-0.1,4.9,0.7,7.4c0.7,2.3,2.2,4.2,3,6.5c0.5,1.3,2.7,1.6,3,0
					c0.3-1.8,0.2-2.3-0.5-3.9c-1.7-3.7-2.5-5.8-2.5-9.9c0.1-4.9-0.8-6.7-3.4-10.7c-2.8-4.3,0.3-8.8-1.7-13.2
					c-2.1-4.6-7.6-5.6-8.6-11C429.4,277.8,427.6,277.8,427.4,278.9L427.4,278.9z"/>
			</g>
		</g>
		<g>
			<g>
				<path class="st27" d="M442.2,326.7c-4.6-2.2-7.5-5.7-7.8-11c-0.2-3.2,0-5.1-2.1-7.6c-2.3-2.7-2.8-4.5-2.2-8.1
					c0.3-1.6,0.8-3,0.6-4.7c-0.2-1.7-1-3.2-1.5-4.8c-1-3.4-0.6-6.4,0.5-9.8c0.6-1.7-2.1-2.9-2.9-1.2c-1.1,2.2-1.7,4.5-1.7,7
					c0,3,1.5,5.1,2.1,7.9c1.2,5.2-2.7,9.6,1.2,14.3c0.6,0.7,1.5,1.2,2,1.9c1.1,1.6,0.7,3.2,0.8,5c0.1,2.2,0.6,4.4,1.6,6.4
					c1.7,3.4,4.9,6.5,8.9,6.1C442.5,328.1,443,327,442.2,326.7L442.2,326.7z"/>
			</g>
		</g>
	</g>
</g>
<g>
	<path class="st15" d="M165.6,351.9c4.2,1.8,9.4,1.4,13.2-0.9c0.6-0.4,1.1-0.7,1.8-0.8c0.6-0.1,1.3,0.2,1.9,0.5
		c5.3,2.3,10.6,4.6,14.8,8.2c0.7,0.6,1.4,1.3,1.5,2.2c0.1,1.1-0.8,2.1-1.9,2.6c-1.1,0.5-2.4,0.5-3.6,0.6c-10.7,0.3-21.4,0-32-1
		c-0.4,0-0.8-0.1-1.1-0.3c-1-0.6-0.6-1.9-0.1-2.9c1.4-2.6,2.7-5.3,4.1-7.9"/>
</g>
<g>
	<path class="st15" d="M215.8,353.3c4.2,1.6,9.4,1.2,13-1.1c0.6-0.3,1.1-0.7,1.8-0.8c0.6-0.1,1.3,0.2,1.9,0.4c5.3,2,10.7,4.1,15,7.5
		c0.7,0.6,1.5,1.2,1.6,2c0.2,1-0.7,2-1.8,2.5c-1.1,0.5-2.4,0.5-3.6,0.6c-10.6,0.5-21.2,0.3-31.7-0.5c-0.4,0-0.8-0.1-1.1-0.2
		c-1-0.5-0.7-1.8-0.2-2.7c1.3-2.5,2.5-5,3.8-7.5"/>
</g>
<g>
	<path class="st19" d="M464.8,327.3l-0.3,3.1l-2.7,28.1c0,1.7-1.4,3.1-3.1,3.1h-22.5c-1.7,0-3.1-1.4-3.1-3.1l-2.7-28.1l-0.3-3.1
		H464.8z"/>
	<rect x="426.8" y="319.2" class="st19" width="41.3" height="8.1"/>
	<polygon class="st20" points="464.8,327.3 464.5,330.4 430.5,330.4 430.2,327.3 	"/>
	<path class="st16" d="M468.2,319.2v8.1h-3.3l-0.3,3.1l-2.7,28.1c0,1.7-1.4,3.1-3.1,3.1h-11.2v-42.4H468.2z"/>
</g>
<g>
	<path class="st19" d="M417.5,327.4l-0.3,3.1l-2.7,28.1c0,1.7-1.4,3.1-3.1,3.1H389c-1.7,0-3.1-1.4-3.1-3.1l-2.7-28.1l-0.3-3.1H417.5
		z"/>
	<rect x="379.5" y="319.4" class="st19" width="41.3" height="8.1"/>
	<polygon class="st20" points="417.5,327.4 417.2,330.5 383.2,330.5 382.9,327.4 	"/>
	<path class="st16" d="M420.9,319.4v8.1h-3.3l-0.3,3.1l-2.7,28.1c0,1.7-1.4,3.1-3.1,3.1h-11.2v-42.4H420.9z"/>
</g>
<path class="st12" d="M218.9,133.1c-0.3,1.1-0.7,2.3-1,3.4c0,0.1-0.1,0.1-0.1,0.2c-0.4,1.2-0.7,2.4-1.1,3.6
	c-0.8,2.7-0.9,6.1-1.7,8.8l-13.6-4.6c0.8-2.6,2.4-5.3,3.2-7.9c0,0,0,0,0,0c0.5-1.7,1.1-3.9,1.6-5.8c0.1-0.3,0.2-0.6,0.3-0.9
	c0.1-0.5,0.3-1,0.4-1.4c0.3,0.1,0.6,0.2,0.9,0.3C211.4,130.1,215.1,131.9,218.9,133.1z"/>
<path class="st16" d="M238.8,113.8c-0.2,1.4-0.4,2.8-0.8,4.3c-1.6,5.7-3.9,10.5-7.8,17.8c-0.2,0.2-0.4,0.5-0.6,0.8h-25.1
	c0,0,0,0,0,0c0.5-1.7,1.1-3.9,1.6-5.8c-0.4,0.5-0.8,0.9-1.2,1.4l-0.1-1.1c-3.7-4.9-5.7-11.1-6-17.3L238.8,113.8L238.8,113.8z"/>
<path class="st12" d="M239,109.8c0,1.3,0,2.7-0.2,4.1c-0.2,1.4-0.4,2.8-0.8,4.3c-1.6,5.7-3.9,10.5-7.8,17.8
	c-0.2,0.2-0.4,0.5-0.6,0.8c-0.8,1.5-1.4,3.8-3.3,2.9c-2.3-0.8-4.4-1.6-6.7-2.4c-0.4-0.2-0.8-0.3-1.2-0.5c-0.2-0.1-0.4-0.1-0.6-0.2
	c-3-1.3-5.3-2.4-8.2-4.1c0,0,0,0-3-2.2c-0.1-0.1-0.2-0.1-0.3-0.2c-0.4-0.3-0.8-0.6-1.3-1c-2.2-2.4-3.4-4.4-3.9-6.4
	c-1.1-4.5-1.4-6.7-1.2-8.8c0.1-1.6,0.4-3,0.7-5.3c0.8-7.1,2.7-12.8,6.1-18.1c0.1-0.2,0.5-1.5,1.9-2.2c0.9-0.4,1.9-0.5,2.9-0.2
	l21.9,8.3c2.1,1.3,2.1,1.3,2.4,1.7c2.2,3.1,1.8,1.9,2.6,6C238.7,105.9,239,107.8,239,109.8z"/>
<path class="st28" d="M225.7,224.5c-0.3-0.3-0.8-0.6-1.6-0.9c-0.9-0.3-2.4-0.6-4.4-0.6l-16.1-0.4l-5.4-0.1l-6.9-0.2
	c-1.5,0.2-2.6,0.4-3.6,0.6c-6.4,1.3-0.6,0.7,0.6-12c0.1-1.4,0.2-2.8,0.2-4.2c0.2-7-0.3-14.1,0.2-21.1c0.6-8,0.3-12.9,3.4-24.7
	c3.1-10.1,1.7-7.6,6.6-15.9c0.5-0.9,1.4-0.9,2.6-0.5c1.6,0.5,3.7,1.5,6.6,2l7.3,1.4l0.6,0.1c0.1,0.1,0.2,0.2,0.2,0.3
	c10.1,13.4,7.5,13.6,7.3,22.1c0,0.4,0,0.7,0,1.1l0,0.6l0.3,8.4l0.1,1.5l0.1,3.2l0.7,21.4l0.4,12.7
	C225,222.3,225.4,223.8,225.7,224.5z"/>
<g>
	<path class="st27" d="M293.8,188.1c1.3-5.5,0.9-11.4-1-16.8c-0.5-1.5-1.1-3.3-0.1-4.5c0.6-0.7,1.5-1,2.2-1.6
		c1.9-1.8,0.5-5.1,1.9-7.3c0.4-0.6,1-1.1,1.6-1.5c1.6-1.2,3.2-2.4,4.8-3.5l0.2,0.3c-1.4,2.8,0.4,6.6-1.5,9.1c-0.7,1-1.9,1.6-2.6,2.6
		c-1.4,2-0.3,4.6-0.1,7c0.5,6-4.5,11.1-5.5,17l-0.7,1.1c-0.5-2.7-0.2-4.9-0.2-7.7c0-2.7-0.6-5.6-2.7-7.6c-1-0.9-2.3-1.6-3.1-2.7
		c-1.1-1.8-0.6-4-0.5-6.1c0.3-5.1-1.9-9.4-6.1-13.2l-0.2-0.6c-2.8,6.6-2.4,14.4,1.2,20.6c0.4,0.8,1,1.6,0.7,2.5
		c-0.1,0.5-0.3,1.1-0.5,1.6c-0.5,1.3-0.1,2.5,0.8,3.6c1.2,1.5,2.8,2.7,4.6,3.4c1.9,0.8,4.5,1.4,4.8,3.4"/>
	<g>
		<path class="st27" d="M294.4,188.3c0.9-3.4,1.2-6.8,0.8-10.3c-0.4-3.6-3-7.9-1-11.1c0.8-1.3,1.9-1.9,2.6-3.5
			c0.1-0.5,0.1-1,0.1-1.6c0-2.7,1.2-4.6,3.5-5.6c0.5-0.4,1.1-0.8,1.6-1.2c0.5-1.6,0.5-1.8-0.1-0.7c-0.2,1-0.1,2-0.2,3
			c-0.2,2.8-1.4,4.4-2.8,6.6c-1.2,1.9-1.4,2.9-1.2,5.2c0.4,5.1-0.1,7.6-2.3,12.3c-1.2,2.6-1.9,5.8-3.3,8.2c0.6,0.1,1.2,0.2,1.8,0.2
			c-0.6-3.9,0.4-8-0.8-11.7c-1.2-3.6-5.3-5-5.8-8.9c-0.6-3.8,0.6-6.8-1.1-10.5c-1.1-2.4-4.1-4.4-5-6.7c-0.4-1-1.6-0.9-1.9,0
			c-1.4,3.7-2.1,7.5-1.8,11.5c0.3,3.7,2.2,6.5,3.1,9.9c0.8,3.4-1,5,1.1,7.9c2.1,2.9,8.1,3.5,9.4,6.5c0.4,0.8,1.8,0.2,1.5-0.6
			c-0.7-2.1-1.9-2.6-3.8-3.6c-1.7-0.8-3.4-1.2-4.7-2.7c-2.8-3.3-0.8-3.5-1-6.2c-0.2-2.8-2.5-5.5-3.1-8.3c-1.1-4.7-0.5-9.4,1.2-14
			c-0.6,0-1.3,0-1.9,0c1.1,3,4.4,4.7,5.5,8.1c1.2,3.5-0.3,7,0.7,10.4c0.9,3.3,4.5,4.3,5.7,7.6c1.3,3.6,0.3,7.9,0.8,11.7
			c0.1,0.9,1.4,0.9,1.8,0.2c2-3.2,3.1-7.5,4.6-11c1.4-3.2,1.8-5.9,1.4-9.4c-0.4-3.6,0.8-4.5,2.6-7.2c0.7-0.9,1-1.9,1.1-3
			c0.1-1,0-1.9,0-2.9c0.1-1,0.7-2.8,0.5-3.7c-0.1-0.4-0.1-0.7-0.3-1.1c-0.3-0.4-0.9-0.7-1.4-0.4c-2.4,1.8-6.1,3.6-7.2,6.5
			c-0.4,1.1-0.1,2-0.4,3.1c-0.2,1.6-0.8,2.8-2,3.6c-0.5,0.2-0.8,0.5-1.1,0.9c-0.9,2.1-0.7,3.1-0.1,5.3c1.5,5.5,2.1,10.6,1.2,16.4
			C293,188.7,294.2,189.1,294.4,188.3L294.4,188.3z"/>
	</g>
</g>
<g class="st29">
	<path class="st30" d="M363.8,157c-3.1,5-1.3,11.6-2.6,17.3c-0.9,3.7-3,7.1-6.1,9.3c2.1-1.8,4.2-3.6,5.7-5.8c4-5.7,4-13.1,3.9-20.1
		c1.1,8.4,2.3,16.8,3.5,25.2c0.4,2.9,0.6,6.4-1.7,8.1c0.7-2.9,2.2-5.7,2.9-8.6c1.8-7.7-1.9-15.7-1.1-23.6
		c-0.9,12.6,7.1,24.1,8.3,36.6c-0.4-11.5-2.5-23-6.2-33.9c-0.4-1.3-0.8-2.9,0.1-3.9c2.3,9,6.5,17.4,12.2,24.8
		c-5.9-5.8-6.2-14.9-8.3-22.9c-0.3-1.3-0.8-2.6-1.8-3.5c-0.9-0.7-2-1-3.1-1.1c-1.4-0.2-3-0.3-4.2,0.5s-1.9,2.5-1.1,3.7"/>
	<g class="st31">
		<path class="st32" d="M363.2,156.6c-1.9,3.6-2.1,7.2-2.2,11.2c-0.2,6.1-1.6,11.2-6.5,15.2c0.4,0.4,0.8,0.8,1.1,1.1
			c3.7-3.2,6.8-6.4,8.4-11.1c1.6-4.9,1.6-10.2,1.5-15.3c-0.5,0.1-1.1,0.1-1.6,0.2c0.8,5.7,1.6,11.5,2.3,17.2
			c0.6,4.2,3,11.7-0.5,15.2c0.5,0.3,1,0.6,1.5,0.9c1.6-5.3,3.7-9.9,3.3-15.5c-0.4-5.7-1.9-11.2-1.5-16.9c-0.6,0-1.2,0-1.8,0
			c-0.5,12.8,6.8,24.1,8.2,36.6c0.1,1.1,1.9,1.2,1.8,0c-0.2-5.9-0.8-11.7-1.9-17.4c-0.5-3-1.2-5.9-2-8.9c-0.7-2.6-3.5-8.5-2.4-11
			c-0.5-0.1-1.1-0.1-1.6-0.2c2.5,9.1,6.6,17.5,12.2,25c0.5-0.4,1-0.8,1.5-1.1c-4-4.3-5.3-9.7-6.4-15.3c-0.7-3.3-0.8-8.7-3.6-11.1
			c-3.2-2.8-12.3-1.9-10,3.9c0.4,1.1,2.2,0.6,1.8-0.5c0.8-2.5,2.2-3.5,4.1-2.9c2.1,0,3.6,1.3,4.3,3.9c0.5,1.1,0.6,2.4,0.8,3.6
			c0.6,2.7,1,5.4,1.7,8c1.1,4.4,2.9,8.4,6,11.7c0.7,0.8,2.1-0.3,1.5-1.1c-5.6-7.4-9.6-15.6-12.1-24.6c-0.2-0.7-1.3-0.9-1.6-0.2
			c-2,4.3,1.8,10.7,2.8,15.1c1.8,7.6,2.8,15.4,3.1,23.2c0.6,0,1.2,0,1.8,0c-1.5-12.5-8.8-23.8-8.3-36.6c0-1.1-1.7-1.1-1.8,0
			c-0.4,5.2,0.9,10.1,1.4,15.2c0.6,6.2-1.4,11-3.1,16.7c-0.3,0.9,0.9,1.5,1.5,0.9c3-3,2.2-7,1.7-10.9c-1.1-7.7-2.2-15.5-3.2-23.2
			c-0.1-0.9-1.6-0.7-1.6,0.2c0.1,10.5-1.1,18.2-9.4,25.3c-0.8,0.7,0.4,1.8,1.1,1.1c3.1-2.5,5.3-5.8,6.3-9.7
			c1.4-5.8-0.3-11.7,2.5-17.2C364.8,156.6,363.6,155.9,363.2,156.6L363.2,156.6z"/>
	</g>
</g>
<path class="st16" d="M235.4,185.5l-3.1,2.5c-0.5-0.4-1-0.9-1.5-1.3c-0.1,1.2,0.1,1.7-0.9,1.5l-6.1-6.2l0.1,3.2l-11.5-14.7l-0.5-0.6
	l6.9-5.6l4.7,5.9l0.8,1.1l8.1,10.3L235.4,185.5z"/>
<g>
	<path class="st12" d="M252.7,192.5c-1.9,1.8-4,4-5.9,5.8c-0.1,0.1-0.1,0.1-0.2,0.2c-0.3,0.2-0.5,0.4-0.8,0.5
		c-0.2,0.1-0.4,0.2-0.7,0.3c-0.9,0.2-1.8,0.1-2.4-0.4c-3-2.3-6.3-5.4-9.4-8.3c-0.5-0.5-1.1-1-1.6-1.4c-0.6-0.6-1.3-1.2-1.9-1.7
		c-2-1.8-3.9-3.5-5.7-5.3c-1.5-1.5-3-2.9-4.4-4.4l0,0c-0.2-0.2-0.4-0.4-0.6-0.6c0-0.1-0.1-0.1-0.1-0.2l0.1-0.1c0,0,0,0,0,0
		c1.9-1.7,3.3-2.9,4.8-4.2c0.3-0.3,0.6-0.5,0.9-0.8c0.4-0.4,0.8-0.8,1.3-1.2c1.1-1,2.3-2.1,3.9-3.6c0.1-0.1,0.1-0.1,0.2-0.2
		c0.1-0.1,0.2-0.2,0.3-0.3l0,0c0.3,0.2,0.7,0.5,1,0.8c0,0,0.1,0.1,0.1,0.1c0.8,0.6,1.6,1.4,2.5,2.2c0,0,0.1,0,0.1,0.1
		c2,1.9,4.1,4,6.2,6.3c1.6,1.7,3.1,3.4,4.5,5.1c0.7,0.9,1.5,1.8,2.2,2.8c0.6,0.8,1.2,1.6,1.8,2.5
		C250.3,188.6,251.7,190.7,252.7,192.5z"/>
	<path class="st12" d="M244.3,199.4l40.1-3.7c-0.3-4.7-1.1-3-1.4-7.7c-6.5-1.1-10.6-1.6-23-2.7c-4.7-0.4-9.1,0.6-12.9,1.6
		C247.2,190.9,244.3,195.4,244.3,199.4z"/>
	<path class="st23" d="M286.2,197.3l13.7-1.6c3.2-0.4,5.5-3.1,5.2-6.1l-0.5-4.9c-0.3-3-3-4-6.3-3.6c0,0-6.5,0.3-6.5,0.3
		c-0.1,0,2.2-3.4,0-4.6c-1.9-1-2.8,1.5-4.5,2.8c-2.7,2-2,1.6-2.7,2c-3,1.6-3.8,1.5-4.5,2.1c-1.1,1-1.5,1.8-1.6,2
		c-2.9,0.1-4.6,0.1-2.9,0.1c2.1,0,1,9.6,1.2,11.6c0.2,0.6,1,0.1,4.1-0.4C283.7,196.7,285.7,197.4,286.2,197.3z"/>
</g>
<path class="st28" d="M226,224.8c0,0-0.1-0.1-0.3-0.4C225.9,224.7,226,224.8,226,224.8z"/>
<path class="st28" d="M238.9,175.1c-0.6,0.2-1.4,0.5-2.2,0.9c-0.7,0.5-1.9,1.7-1.9,1.7c-1.2,1.5-2,2.9-2.4,3.8
	c-0.4,0.8-0.5,1.2-0.5,1.2c-0.8,1.6-1,2.9-1,3.8c-0.1,1.2,0.1,1.7-0.9,1.5l-6.1-6.2l-10.7-10.8c-0.3-0.3-0.6-0.5-0.8-0.7
	c-0.2-0.2-0.3-0.4-0.5-0.6c-0.4-0.6-0.7-1.5-1.3-3.5l2-17.2c0.2-0.2,0.4-0.4,0.6-0.5c0.6-0.4,1.4-0.6,2.1-0.6c0.3,0,0.6,0.1,0.9,0.2
	c0.4,0.1,0.8,0.4,1.2,0.7l22.9,24.6C241.2,174.4,240.4,174.6,238.9,175.1z"/>
<g>
	<path class="st33" d="M213.9,103.6l0.2,0.8c-0.2,0-0.5,0.1-0.6,0.2c0-0.1,0-0.3,0-0.4C213.6,103.9,213.8,103.7,213.9,103.6z"/>
	<g>
		<path class="st33" d="M212.7,103.9c0.1,0.3,0.1,0.5,0.2,0.8c0.4-0.5,0.8-1.1,1.2-1.6c-0.5,0-0.9,0.1-1.3,0.4
			c0.6,0.4,1.3,0.7,1.9,1.1c0-0.1,0-0.3,0-0.4c-0.1,0.2-0.1,0.4-0.2,0.6c0.1-0.1,0.2-0.2,0.3-0.3c0.5-0.5,0.5-1.3,0-1.8
			c-0.5-0.5-1.3-0.5-1.8,0c-0.3,0.2-0.5,0.5-0.7,0.8c-0.2,0.4-0.2,0.7-0.2,1.1c0,0.9,1.1,1.7,1.9,1.1c0.3-0.2,0.1-0.1,0-0.1
			c0.9,0,1.4-0.8,1.2-1.6c-0.1-0.3-0.1-0.5-0.2-0.8c-0.1-0.7-0.9-1.1-1.6-0.9C212.9,102.5,212.6,103.2,212.7,103.9z"/>
	</g>
</g>
<g>
	<path class="st33" d="M250.8,103.2c-2.6,3.6-7.5,5.7-11.8,6.6c-0.5,0.1-1,0.2-1.5,0.3c-4.8,0.7-9.7-0.1-14.5-1.1
		c-1.9-0.4-4-1.8-4.9-3.5c-0.4-0.8-3.6-0.9-4.1-1.6c-0.6-0.7-0.2,0.5-1.1,0.9c-0.2,0.1,1.1-1.4,1-1.2l-0.8-3.7
		c0.1,1.4,0.2,2.9,0.3,4.3c-0.2,0.3-0.3,0.6-0.4,1c0.1-0.2,0.2-0.4,0.4-0.6c0.1,3.1,0,6.2-0.4,9.3c-0.1,1.1-0.3,2.1-0.6,3.2
		c-0.9,4.2-2.5,8.3-4.9,11.8c-0.3,0.5-0.6,0.9-1,1.3c-0.2,0.2-0.4,0.5-0.6,0.7c-0.4,0.5-0.8,0.9-1.2,1.4l-0.1-1.1
		c-3.7-4.9-5.7-11.1-6-17.3c-0.1-1.9,0-3.8,0.2-5.7c1-8.1,4-14.9,9.1-21l0.8-0.6c13.7,5,27.3,10.4,40.7,16L250.8,103.2z"/>
	<g>
		<path class="st33" d="M249.9,102.3c-5.1,6.3-13.7,7.3-21.3,6.3c-2.1-0.3-4.3-0.4-6.2-1.3c-1.5-0.6-2.2-2-3.5-2.9
			c-1.4-0.9-3.1-1.1-4.6-1.9c-0.8-0.4-1.6,0-1.9,0.8c-0.1,0.2-0.3,0.3-0.4,0.5c0.7,0.5,1.3,1,2,1.6c1.5-2.2,0.9-3.2,0.4-5.9
			c-0.3-1.4-2.6-1.1-2.5,0.3c0.1,1.5,0.5,3.5,0,4.9c-0.5,1.4,1.6,2.1,2.3,1c0.1-0.2,0.2-0.4,0.4-0.6c-0.8-0.2-1.6-0.4-2.4-0.6
			c0.2,9.8-1.6,19.3-8.2,26.8c0.7,0.3,1.5,0.6,2.2,0.9c-0.2-2.4-1.8-3.9-2.9-6.1c-1.9-3.8-2.9-8.1-3.1-12.4
			c-0.4-7.8,2-15.9,6.4-22.3c0.6-0.9,1.2-1.7,1.8-2.4c0.4-1.3,1.2-1.5,2.2-0.7c1.6,0,3.8,1.4,5.4,2c4.1,1.6,8.3,3.2,12.4,4.8
			c7.3,2.9,15,5.4,22,9.1c1.5,0.8,2.8-1.4,1.3-2.2c-8-4.2-16.9-7.1-25.2-10.4c-5-1.9-10-3.9-15.1-5.7c-2.7-1-3.1-0.6-4.9,1.6
			c-4.7,5.9-7.6,13.1-8.4,20.6c-0.5,4.3-0.3,8.6,0.8,12.7c0.5,2,1.2,4,2.1,5.9c0.8,1.6,2.8,3.8,2.9,5.5c0.1,1,1.4,1.8,2.2,0.9
			c7.1-8.1,9.2-18.1,9-28.6c0-1.3-1.7-1.7-2.4-0.6c-0.1,0.2-0.2,0.4-0.4,0.6c0.8,0.3,1.6,0.7,2.3,1c0.6-1.8,0.3-3.7,0.1-5.6
			c-0.8,0.1-1.7,0.2-2.5,0.3c0.2,1,0.6,2.1,0.6,3.1c0,1.3,0.3-1.4-0.1,0c0,0.1-0.6,0.7-0.7,0.9c-0.8,1.2,1,2.6,2,1.6
			c0.6-0.6,0.8-0.9,1-1.6c-0.6,0.3-1.3,0.5-1.9,0.8c0.9,0.5,1.9,0.6,2.8,1.1c1.4,0.6,2.1,1.7,3.3,2.6c3.1,2.3,7.4,2.6,11.2,2.9
			c7.7,0.7,16.3-1.1,21.5-7.3C252.8,102.8,251,101,249.9,102.3z"/>
	</g>
</g>
<path d="M226,224.8c0,0-0.1-0.1-0.3-0.4C225.9,224.7,226,224.8,226,224.8z"/>
<g>
	<g>
		<path class="st34" d="M410.8,67.8l-3.6-14.2h1.9l1.7,7.2c0.4,1.8,0.8,3.5,1,4.9h0c0.2-1.4,0.7-3.1,1.1-4.9l1.9-7.1h1.9l1.7,7.2
			c0.4,1.7,0.8,3.4,1,4.8h0c0.3-1.6,0.7-3.1,1.1-4.9l1.9-7.1h1.9l-4,14.2h-1.9l-1.8-7.4c-0.5-1.8-0.7-3.2-0.9-4.6h0
			c-0.2,1.4-0.6,2.8-1.1,4.6l-2,7.4C412.7,67.8,410.8,67.8,410.8,67.8z"/>
		<path class="st34" d="M427.2,63c0,2.5,1.6,3.5,3.5,3.5c1.3,0,2.1-0.2,2.8-0.5l0.3,1.3c-0.6,0.3-1.8,0.7-3.4,0.7
			c-3.1,0-5-2.1-5-5.1c0-3.1,1.8-5.5,4.8-5.5c3.3,0,4.2,2.9,4.2,4.8c0,0.4,0,0.7-0.1,0.9L427.2,63L427.2,63z M432.6,61.7
			c0-1.2-0.5-3-2.5-3c-1.9,0-2.7,1.7-2.8,3H432.6z"/>
		<path class="st34" d="M441.1,67.8c0-0.7,0.1-1.7,0.1-2.6V52.9h1.8v6.4h0c0.6-1.1,1.8-1.9,3.5-1.9c2.5,0,4.3,2.1,4.3,5.2
			c0,3.6-2.3,5.4-4.6,5.4c-1.5,0-2.6-0.6-3.4-1.9h0l-0.1,1.7C442.7,67.8,441.1,67.8,441.1,67.8z M443,63.7c0,0.2,0,0.5,0.1,0.7
			c0.4,1.3,1.4,2.2,2.8,2.2c1.9,0,3.1-1.6,3.1-3.9c0-2-1-3.8-3-3.8c-1.3,0-2.4,0.9-2.8,2.3c-0.1,0.2-0.1,0.5-0.1,0.8L443,63.7
			L443,63.7z"/>
		<path class="st34" d="M454.1,63c0,2.5,1.6,3.5,3.5,3.5c1.3,0,2.1-0.2,2.8-0.5l0.3,1.3c-0.6,0.3-1.8,0.7-3.4,0.7
			c-3.1,0-5-2.1-5-5.1c0-3.1,1.8-5.5,4.8-5.5c3.3,0,4.2,2.9,4.2,4.8c0,0.4,0,0.7-0.1,0.9L454.1,63L454.1,63z M459.5,61.7
			c0-1.2-0.5-3-2.5-3c-1.9,0-2.7,1.7-2.8,3H459.5z"/>
		<path class="st34" d="M463.6,52.9h1.8v14.9h-1.8V52.9z"/>
		<path class="st34" d="M470.6,54.8c0,0.6-0.4,1.2-1.2,1.2c-0.7,0-1.1-0.5-1.1-1.2c0-0.6,0.5-1.2,1.1-1.2
			C470.2,53.6,470.6,54.1,470.6,54.8z M468.6,67.8V57.6h1.8v10.2H468.6z"/>
		<path class="st34" d="M474.5,63c0,2.5,1.6,3.5,3.5,3.5c1.3,0,2.1-0.2,2.8-0.5l0.3,1.3c-0.6,0.3-1.8,0.7-3.4,0.7
			c-3.1,0-5-2.1-5-5.1c0-3.1,1.8-5.5,4.8-5.5c3.3,0,4.2,2.9,4.2,4.8c0,0.4,0,0.7-0.1,0.9L474.5,63L474.5,63z M479.9,61.7
			c0-1.2-0.5-3-2.5-3c-1.9,0-2.7,1.7-2.8,3H479.9z"/>
		<path class="st34" d="M484.7,57.6l2,5.7c0.3,0.9,0.6,1.8,0.8,2.6h0c0.2-0.8,0.5-1.7,0.9-2.6l2-5.7h1.9l-4,10.2h-1.8l-3.9-10.2
			H484.7z"/>
		<path class="st34" d="M495.1,63c0,2.5,1.6,3.5,3.5,3.5c1.3,0,2.1-0.2,2.8-0.5l0.3,1.3c-0.6,0.3-1.8,0.7-3.4,0.7
			c-3.1,0-5-2.1-5-5.1c0-3.1,1.8-5.5,4.8-5.5c3.3,0,4.2,2.9,4.2,4.8c0,0.4,0,0.7-0.1,0.9L495.1,63L495.1,63z M500.5,61.7
			c0-1.2-0.5-3-2.5-3c-1.9,0-2.7,1.7-2.8,3H500.5z"/>
		<path class="st34" d="M511.1,54.8c0,0.6-0.4,1.2-1.2,1.2c-0.7,0-1.1-0.5-1.1-1.2c0-0.6,0.5-1.2,1.1-1.2
			C510.7,53.6,511.1,54.1,511.1,54.8z M509.1,67.8V57.6h1.8v10.2H509.1z"/>
		<path class="st34" d="M514,60.4c0-1.1,0-1.9-0.1-2.7h1.6l0.1,1.7h0c0.5-0.9,1.7-1.9,3.4-1.9c1.4,0,3.6,0.8,3.6,4.3v6.1h-1.8v-5.8
			c0-1.6-0.6-3-2.3-3c-1.2,0-2.2,0.9-2.5,1.9c-0.1,0.2-0.1,0.6-0.1,0.9v6.1H514V60.4z"/>
		<path class="st34" d="M531.1,63c0,2.5,1.6,3.5,3.5,3.5c1.3,0,2.1-0.2,2.8-0.5l0.3,1.3c-0.7,0.3-1.8,0.7-3.4,0.7
			c-3.1,0-5-2.1-5-5.1c0-3.1,1.8-5.5,4.8-5.5c3.3,0,4.2,2.9,4.2,4.8c0,0.4,0,0.7-0.1,0.9L531.1,63L531.1,63z M536.5,61.7
			c0-1.2-0.5-3-2.5-3c-1.9,0-2.7,1.7-2.8,3H536.5z"/>
		<path class="st34" d="M540.6,60.4c0-1.1,0-1.9-0.1-2.7h1.6l0.1,1.6h0c0.6-1,1.5-1.9,3.2-1.9c1.4,0,2.4,0.8,2.9,2h0
			c0.3-0.6,0.7-1,1.2-1.3c0.6-0.5,1.3-0.7,2.2-0.7c1.4,0,3.3,0.9,3.3,4.4v6h-1.8v-5.7c0-2-0.7-3.1-2.2-3.1c-1.1,0-1.9,0.8-2.2,1.7
			c-0.1,0.3-0.2,0.6-0.2,0.9v6.3H547v-6.1c0-1.6-0.7-2.8-2.1-2.8c-1.2,0-2,0.9-2.3,1.8c-0.1,0.3-0.1,0.6-0.1,0.9v6.1h-1.8
			L540.6,60.4L540.6,60.4z"/>
		<path class="st34" d="M558.1,60.9c0-1.3,0-2.3-0.1-3.3h1.7l0.1,1.7h0c0.7-1.2,2-2,3.6-2c2.5,0,4.3,2.1,4.3,5.2
			c0,3.7-2.2,5.5-4.6,5.5c-1.4,0-2.5-0.6-3.1-1.6h0v5.5h-1.8L558.1,60.9L558.1,60.9z M560,63.7c0,0.3,0,0.5,0.1,0.8
			c0.3,1.3,1.5,2.2,2.8,2.2c2,0,3.1-1.6,3.1-3.9c0-2-1.1-3.8-3-3.8c-1.3,0-2.4,0.9-2.8,2.3c-0.1,0.2-0.1,0.5-0.1,0.8L560,63.7
			L560,63.7z"/>
		<path class="st34" d="M579.3,62.6c0,3.8-2.6,5.4-5,5.4c-2.8,0-4.9-2-4.9-5.2c0-3.4,2.2-5.4,5-5.4
			C577.3,57.4,579.3,59.5,579.3,62.6z M571.2,62.7c0,2.2,1.3,3.9,3.1,3.9c1.8,0,3.1-1.7,3.1-4c0-1.7-0.9-3.9-3.1-3.9
			C572.2,58.8,571.2,60.8,571.2,62.7z"/>
		<path class="st34" d="M582.3,57.6l1.4,5.2c0.3,1.1,0.5,2.2,0.8,3.2h0c0.2-1,0.6-2.1,0.9-3.2l1.7-5.2h1.5l1.6,5.1
			c0.4,1.2,0.7,2.3,0.9,3.3h0c0.2-1,0.5-2.1,0.8-3.3l1.5-5.1h1.8l-3.3,10.2h-1.7l-1.5-4.8c-0.4-1.1-0.7-2.2-0.9-3.3h0
			c-0.3,1.2-0.6,2.3-0.9,3.4l-1.6,4.8h-1.7l-3.1-10.2L582.3,57.6L582.3,57.6z"/>
		<path class="st34" d="M598.1,63c0,2.5,1.6,3.5,3.5,3.5c1.3,0,2.1-0.2,2.8-0.5l0.3,1.3c-0.7,0.3-1.8,0.7-3.4,0.7
			c-3.1,0-5-2.1-5-5.1c0-3.1,1.8-5.5,4.8-5.5c3.3,0,4.2,2.9,4.2,4.8c0,0.4,0,0.7-0.1,0.9L598.1,63L598.1,63z M603.5,61.7
			c0-1.2-0.5-3-2.5-3c-1.9,0-2.7,1.7-2.8,3H603.5z"/>
		<path class="st34" d="M607.6,60.8c0-1.2,0-2.2-0.1-3.2h1.6l0.1,2h0.1c0.5-1.4,1.6-2.2,2.8-2.2c0.2,0,0.3,0,0.5,0.1v1.7
			c-0.2,0-0.4-0.1-0.6-0.1c-1.3,0-2.2,1-2.5,2.4c0,0.3-0.1,0.6-0.1,0.9v5.4h-1.8V60.8z"/>
		<path class="st34" d="M616.5,54.8c0,0.6-0.4,1.2-1.2,1.2c-0.7,0-1.1-0.5-1.1-1.2c0-0.6,0.5-1.2,1.2-1.2
			C616.1,53.6,616.5,54.1,616.5,54.8z M614.5,67.8V57.6h1.8v10.2H614.5z"/>
		<path class="st34" d="M619.4,60.4c0-1.1,0-1.9-0.1-2.7h1.6l0.1,1.7h0c0.5-0.9,1.7-1.9,3.4-1.9c1.4,0,3.6,0.8,3.6,4.3v6.1h-1.8
			v-5.8c0-1.6-0.6-3-2.3-3c-1.2,0-2.2,0.9-2.5,1.9c-0.1,0.2-0.1,0.6-0.1,0.9v6.1h-1.8L619.4,60.4L619.4,60.4z"/>
		<path class="st34" d="M639.8,57.6c0,0.7-0.1,1.5-0.1,2.8v5.9c0,2.3-0.5,3.8-1.5,4.7c-1,0.9-2.4,1.2-3.7,1.2
			c-1.2,0-2.6-0.3-3.4-0.8l0.5-1.4c0.7,0.4,1.7,0.8,3,0.8c1.9,0,3.3-1,3.3-3.6V66h0c-0.5,0.9-1.7,1.7-3.2,1.7c-2.5,0-4.3-2.2-4.3-5
			c0-3.4,2.2-5.4,4.6-5.4c1.8,0,2.7,0.9,3.2,1.8h0l0.1-1.5L639.8,57.6L639.8,57.6z M637.9,61.6c0-0.3,0-0.6-0.1-0.8
			c-0.3-1.1-1.2-2-2.6-2c-1.8,0-3,1.5-3,3.8c0,2,1,3.7,3,3.7c1.2,0,2.2-0.7,2.6-1.9c0.1-0.3,0.2-0.7,0.2-1L637.9,61.6L637.9,61.6z"
			/>
		<path class="st34" d="M649.3,54.8c0,0.6-0.4,1.2-1.2,1.2c-0.7,0-1.1-0.5-1.1-1.2c0-0.6,0.5-1.2,1.2-1.2
			C648.8,53.6,649.3,54.1,649.3,54.8z M647.2,67.8V57.6h1.8v10.2H647.2z"/>
		<path class="st34" d="M660.9,52.9v12.3c0,0.9,0,1.9,0.1,2.6h-1.6l-0.1-1.8h0c-0.6,1.1-1.8,2-3.4,2c-2.5,0-4.4-2.1-4.4-5.2
			c0-3.4,2.1-5.5,4.6-5.5c1.6,0,2.6,0.7,3.1,1.5h0v-6.1C659.1,52.9,660.9,52.9,660.9,52.9z M659.1,61.8c0-0.2,0-0.6-0.1-0.8
			c-0.3-1.2-1.3-2.1-2.7-2.1c-1.9,0-3.1,1.7-3.1,3.9c0,2.1,1,3.8,3,3.8c1.2,0,2.4-0.8,2.7-2.2c0.1-0.2,0.1-0.5,0.1-0.8L659.1,61.8
			L659.1,61.8z"/>
		<path class="st34" d="M665,63c0,2.5,1.6,3.5,3.5,3.5c1.3,0,2.1-0.2,2.8-0.5l0.3,1.3c-0.7,0.3-1.8,0.7-3.4,0.7c-3.1,0-5-2.1-5-5.1
			c0-3.1,1.8-5.5,4.8-5.5c3.3,0,4.2,2.9,4.2,4.8c0,0.4,0,0.7-0.1,0.9L665,63L665,63z M670.4,61.7c0-1.2-0.5-3-2.5-3
			c-1.9,0-2.7,1.7-2.8,3H670.4z"/>
		<path class="st34" d="M680.1,67.8l-0.2-1.3h0c-0.6,0.8-1.7,1.5-3.1,1.5c-2,0-3.1-1.5-3.1-2.9c0-2.5,2.2-3.8,6.1-3.8v-0.2
			c0-0.8-0.2-2.3-2.3-2.3c-1,0-1.9,0.3-2.7,0.8l-0.4-1.2c0.8-0.5,2.1-0.9,3.3-0.9c3.1,0,3.9,2.1,3.9,4.2v3.8c0,0.9,0,1.7,0.2,2.4
			L680.1,67.8L680.1,67.8z M679.8,62.6c-2,0-4.3,0.3-4.3,2.3c0,1.2,0.8,1.8,1.7,1.8c1.3,0,2.2-0.8,2.5-1.7c0.1-0.2,0.1-0.4,0.1-0.6
			L679.8,62.6L679.8,62.6z"/>
		<path class="st34" d="M684.4,65.9c0.6,0.3,1.5,0.7,2.5,0.7c1.3,0,2-0.7,2-1.5c0-0.9-0.5-1.3-1.9-1.9c-1.8-0.7-2.7-1.7-2.7-2.9
			c0-1.6,1.3-3,3.5-3c1,0,1.9,0.3,2.5,0.6l-0.5,1.3c-0.4-0.3-1.1-0.6-2.1-0.6c-1.1,0-1.7,0.6-1.7,1.4c0,0.8,0.6,1.2,1.9,1.7
			c1.8,0.7,2.7,1.5,2.7,3.1c0,1.8-1.4,3.1-3.8,3.1c-1.1,0-2.1-0.3-2.8-0.7L684.4,65.9z"/>
		<path class="st34" d="M691.8,70.4c0.5-1.3,1-3.5,1.3-5l2-0.2c-0.5,1.8-1.4,4.1-2,5.1L691.8,70.4z"/>
		<path class="st34" d="M701.7,67.8c0-0.7,0.1-1.7,0.1-2.6V52.9h1.8v6.4h0c0.7-1.1,1.8-1.9,3.5-1.9c2.5,0,4.3,2.1,4.3,5.2
			c0,3.6-2.3,5.4-4.6,5.4c-1.5,0-2.6-0.6-3.4-1.9h0l-0.1,1.7C703.3,67.8,701.7,67.8,701.7,67.8z M703.6,63.7c0,0.2,0,0.5,0.1,0.7
			c0.3,1.3,1.4,2.2,2.8,2.2c1.9,0,3.1-1.6,3.1-3.9c0-2-1-3.8-3-3.8c-1.3,0-2.4,0.9-2.8,2.3c-0.1,0.2-0.1,0.5-0.1,0.8L703.6,63.7
			L703.6,63.7z"/>
		<path class="st34" d="M722.2,65c0,1.1,0,2,0.1,2.8h-1.6l-0.1-1.7h0c-0.5,0.8-1.5,1.9-3.4,1.9c-1.6,0-3.5-0.9-3.5-4.4v-5.9h1.8v5.6
			c0,1.9,0.6,3.3,2.3,3.3c1.2,0,2.1-0.9,2.4-1.7c0.1-0.3,0.2-0.6,0.2-0.9v-6.2h1.8L722.2,65L722.2,65z"/>
		<path class="st34" d="M725,65.9c0.6,0.3,1.5,0.7,2.5,0.7c1.3,0,2-0.7,2-1.5c0-0.9-0.5-1.3-1.9-1.9c-1.8-0.7-2.7-1.7-2.7-2.9
			c0-1.6,1.3-3,3.5-3c1,0,1.9,0.3,2.5,0.6l-0.5,1.3c-0.4-0.3-1.1-0.6-2.1-0.6c-1.1,0-1.7,0.6-1.7,1.4c0,0.8,0.6,1.2,1.9,1.7
			c1.8,0.7,2.7,1.5,2.7,3.1c0,1.8-1.4,3.1-3.8,3.1c-1.1,0-2.1-0.3-2.8-0.7L725,65.9z"/>
		<path class="st34" d="M735.6,54.8c0,0.6-0.4,1.2-1.2,1.2c-0.7,0-1.1-0.5-1.1-1.2c0-0.6,0.5-1.2,1.2-1.2
			C735.2,53.6,735.6,54.1,735.6,54.8z M733.6,67.8V57.6h1.8v10.2H733.6z"/>
		<path class="st34" d="M738.5,60.4c0-1.1,0-1.9-0.1-2.7h1.6l0.1,1.7h0c0.5-0.9,1.7-1.9,3.4-1.9c1.4,0,3.6,0.8,3.6,4.3v6.1h-1.8
			v-5.8c0-1.6-0.6-3-2.3-3c-1.2,0-2.2,0.9-2.5,1.9c-0.1,0.2-0.1,0.6-0.1,0.9v6.1h-1.8L738.5,60.4L738.5,60.4z"/>
		<path class="st34" d="M751.2,63c0,2.5,1.6,3.5,3.5,3.5c1.3,0,2.1-0.2,2.8-0.5l0.3,1.3c-0.7,0.3-1.8,0.7-3.4,0.7
			c-3.1,0-5-2.1-5-5.1c0-3.1,1.8-5.5,4.8-5.5c3.3,0,4.2,2.9,4.2,4.8c0,0.4,0,0.7-0.1,0.9L751.2,63L751.2,63z M756.6,61.7
			c0-1.2-0.5-3-2.5-3c-1.9,0-2.7,1.7-2.8,3H756.6z"/>
		<path class="st34" d="M760.4,65.9c0.6,0.3,1.5,0.7,2.5,0.7c1.3,0,2-0.7,2-1.5c0-0.9-0.5-1.3-1.9-1.9c-1.8-0.7-2.7-1.7-2.7-2.9
			c0-1.6,1.3-3,3.5-3c1,0,1.9,0.3,2.5,0.6l-0.5,1.3c-0.4-0.3-1.1-0.6-2.1-0.6c-1.1,0-1.7,0.6-1.7,1.4c0,0.8,0.6,1.2,1.9,1.7
			c1.8,0.7,2.7,1.5,2.7,3.1c0,1.8-1.4,3.1-3.8,3.1c-1.1,0-2.1-0.3-2.8-0.7L760.4,65.9z"/>
		<path class="st34" d="M768.7,65.9c0.6,0.3,1.5,0.7,2.5,0.7c1.3,0,2-0.7,2-1.5c0-0.9-0.5-1.3-1.9-1.9c-1.8-0.7-2.7-1.7-2.7-2.9
			c0-1.6,1.3-3,3.5-3c1,0,1.9,0.3,2.5,0.6l-0.5,1.3c-0.4-0.3-1.1-0.6-2.1-0.6c-1.1,0-1.7,0.6-1.7,1.4c0,0.8,0.6,1.2,1.9,1.7
			c1.8,0.7,2.7,1.5,2.7,3.1c0,1.8-1.4,3.1-3.8,3.1c-1.1,0-2.1-0.3-2.8-0.7L768.7,65.9z"/>
		<path class="st34" d="M778.3,63c0,2.5,1.6,3.5,3.5,3.5c1.3,0,2.1-0.2,2.8-0.5l0.3,1.3c-0.7,0.3-1.8,0.7-3.4,0.7
			c-3.1,0-5-2.1-5-5.1c0-3.1,1.8-5.5,4.8-5.5c3.3,0,4.2,2.9,4.2,4.8c0,0.4,0,0.7-0.1,0.9L778.3,63L778.3,63z M783.7,61.7
			c0-1.2-0.5-3-2.5-3c-1.9,0-2.7,1.7-2.8,3H783.7z"/>
		<path class="st34" d="M787.6,65.9c0.6,0.3,1.5,0.7,2.5,0.7c1.3,0,2-0.7,2-1.5c0-0.9-0.5-1.3-1.9-1.9c-1.8-0.7-2.7-1.7-2.7-2.9
			c0-1.6,1.3-3,3.5-3c1,0,1.9,0.3,2.5,0.6l-0.5,1.3c-0.4-0.3-1.1-0.6-2.1-0.6c-1.1,0-1.7,0.6-1.7,1.4c0,0.8,0.6,1.2,1.9,1.7
			c1.8,0.7,2.7,1.5,2.7,3.1c0,1.8-1.4,3.1-3.8,3.1c-1.1,0-2.1-0.3-2.8-0.7L787.6,65.9z"/>
		<path class="st34" d="M794.9,70.4c0.5-1.3,1-3.5,1.3-5l2-0.2c-0.5,1.8-1.4,4.1-2,5.1L794.9,70.4z"/>
		<path class="st34" d="M474.8,93l-0.2-1.3h0c-0.6,0.8-1.6,1.5-3.1,1.5c-2,0-3.1-1.5-3.1-2.9c0-2.5,2.2-3.8,6.1-3.8v-0.2
			c0-0.8-0.2-2.3-2.3-2.3c-1,0-1.9,0.3-2.6,0.8l-0.4-1.2c0.8-0.5,2.1-0.9,3.4-0.9c3.1,0,3.9,2.1,3.9,4.2v3.8c0,0.9,0,1.7,0.1,2.4
			L474.8,93L474.8,93z M474.5,87.8c-2,0-4.3,0.3-4.3,2.3c0,1.2,0.8,1.8,1.7,1.8c1.3,0,2.2-0.8,2.5-1.7c0.1-0.2,0.1-0.4,0.1-0.6
			L474.5,87.8L474.5,87.8z"/>
		<path class="st34" d="M479.3,85.6c0-1.1,0-1.9-0.1-2.7h1.6l0.1,1.7h0c0.5-0.9,1.7-1.9,3.4-1.9c1.4,0,3.6,0.8,3.6,4.3V93h-1.8v-5.8
			c0-1.6-0.6-3-2.4-3c-1.2,0-2.2,0.9-2.5,1.9c-0.1,0.2-0.1,0.6-0.1,0.9V93h-1.8L479.3,85.6L479.3,85.6z"/>
		<path class="st34" d="M499.7,78.1v12.3c0,0.9,0,1.9,0.1,2.6h-1.6l-0.1-1.8H498c-0.6,1.1-1.8,2-3.4,2c-2.5,0-4.4-2.1-4.4-5.2
			c0-3.4,2.1-5.5,4.6-5.5c1.6,0,2.6,0.7,3.1,1.5h0v-6.1H499.7z M497.9,87c0-0.2,0-0.6-0.1-0.8c-0.3-1.2-1.3-2.1-2.7-2.1
			c-1.9,0-3.1,1.7-3.1,3.9c0,2.1,1,3.8,3,3.8c1.2,0,2.4-0.8,2.7-2.2c0.1-0.2,0.1-0.5,0.1-0.8V87z"/>
		<path class="st34" d="M507.2,85.6c0-1.1,0-1.9-0.1-2.7h1.6l0.1,1.6h0c0.6-1,1.5-1.9,3.2-1.9c1.4,0,2.4,0.8,2.9,2h0
			c0.3-0.6,0.7-1,1.2-1.3c0.6-0.5,1.3-0.7,2.2-0.7c1.4,0,3.3,0.9,3.3,4.4v6h-1.8v-5.7c0-2-0.7-3.1-2.2-3.1c-1.1,0-1.9,0.8-2.2,1.7
			c-0.1,0.3-0.2,0.6-0.2,0.9V93h-1.8v-6.1c0-1.6-0.7-2.8-2.1-2.8c-1.1,0-2,0.9-2.3,1.8c-0.1,0.3-0.1,0.6-0.1,0.9V93h-1.8L507.2,85.6
			L507.2,85.6z"/>
		<path class="st34" d="M533.9,87.8c0,3.8-2.6,5.4-5,5.4c-2.8,0-4.9-2-4.9-5.2c0-3.4,2.2-5.4,5-5.4C532,82.6,533.9,84.7,533.9,87.8z
			 M525.9,87.9c0,2.2,1.3,3.9,3.1,3.9c1.8,0,3.1-1.7,3.1-4c0-1.7-0.9-3.9-3.1-3.9C526.8,84,525.9,86,525.9,87.9z"/>
		<path class="st34" d="M536,91.1c0.6,0.3,1.5,0.7,2.5,0.7c1.3,0,2-0.7,2-1.5c0-0.9-0.5-1.3-1.9-1.9c-1.8-0.7-2.7-1.7-2.7-2.9
			c0-1.6,1.3-3,3.5-3c1,0,1.9,0.3,2.5,0.6l-0.5,1.3c-0.4-0.3-1.1-0.6-2.1-0.6c-1.1,0-1.7,0.6-1.7,1.4c0,0.8,0.6,1.2,1.9,1.7
			c1.8,0.7,2.7,1.5,2.7,3.1c0,1.8-1.4,3.1-3.8,3.1c-1.1,0-2.1-0.3-2.8-0.7L536,91.1z"/>
		<path class="st34" d="M546.8,79.9v2.9h2.7v1.4h-2.7v5.5c0,1.3,0.4,2,1.4,2c0.5,0,0.8-0.1,1.1-0.1l0.1,1.4
			c-0.4,0.1-0.9,0.3-1.7,0.3c-0.8,0-1.5-0.3-2-0.8c-0.5-0.6-0.7-1.5-0.7-2.7v-5.5h-1.6v-1.4h1.6v-2.4L546.8,79.9z"/>
		<path class="st34" d="M558.1,80c0,0.6-0.4,1.2-1.2,1.2c-0.7,0-1.1-0.5-1.1-1.2c0-0.6,0.5-1.2,1.2-1.2
			C557.6,78.8,558.1,79.3,558.1,80z M556,93V82.8h1.8V93H556z"/>
		<path class="st34" d="M560.9,85.6c0-1.1,0-1.9-0.1-2.7h1.6l0.1,1.6h0c0.6-1,1.5-1.9,3.2-1.9c1.4,0,2.4,0.8,2.9,2h0
			c0.3-0.6,0.7-1,1.2-1.3c0.6-0.5,1.3-0.7,2.2-0.7c1.4,0,3.3,0.9,3.3,4.4v6h-1.8v-5.7c0-2-0.7-3.1-2.2-3.1c-1.1,0-1.9,0.8-2.2,1.7
			c-0.1,0.3-0.2,0.6-0.2,0.9V93h-1.8v-6.1c0-1.6-0.7-2.8-2.1-2.8c-1.2,0-2,0.9-2.3,1.8c-0.1,0.3-0.1,0.6-0.1,0.9V93h-1.8L560.9,85.6
			L560.9,85.6z"/>
		<path class="st34" d="M578.4,86.1c0-1.3,0-2.3-0.1-3.3h1.7l0.1,1.7h0c0.7-1.2,2-2,3.6-2c2.5,0,4.3,2.1,4.3,5.2
			c0,3.7-2.2,5.5-4.6,5.5c-1.4,0-2.5-0.6-3.1-1.6h0v5.5h-1.8L578.4,86.1L578.4,86.1z M580.3,88.8c0,0.3,0,0.5,0.1,0.8
			c0.3,1.3,1.5,2.2,2.8,2.2c2,0,3.1-1.6,3.1-3.9c0-2-1.1-3.8-3-3.8c-1.3,0-2.4,0.9-2.8,2.3c-0.1,0.2-0.1,0.5-0.1,0.8L580.3,88.8
			L580.3,88.8z"/>
		<path class="st34" d="M599.6,87.8c0,3.8-2.6,5.4-5,5.4c-2.8,0-4.9-2-4.9-5.2c0-3.4,2.2-5.4,5-5.4
			C597.6,82.6,599.6,84.7,599.6,87.8z M591.5,87.9c0,2.2,1.3,3.9,3.1,3.9c1.8,0,3.1-1.7,3.1-4c0-1.7-0.9-3.9-3.1-3.9
			C592.5,84,591.5,86,591.5,87.9z"/>
		<path class="st34" d="M601.9,86c0-1.2,0-2.2-0.1-3.2h1.6l0.1,2h0.1c0.5-1.4,1.6-2.2,2.8-2.2c0.2,0,0.3,0,0.5,0.1v1.7
			c-0.2,0-0.4-0.1-0.6-0.1c-1.3,0-2.2,1-2.5,2.4c0,0.3-0.1,0.6-0.1,0.9V93h-1.8V86z"/>
		<path class="st34" d="M611,79.9v2.9h2.7v1.4H611v5.5c0,1.3,0.4,2,1.4,2c0.5,0,0.8-0.1,1.1-0.1l0.1,1.4c-0.4,0.1-0.9,0.3-1.7,0.3
			c-0.8,0-1.5-0.3-2-0.8c-0.5-0.6-0.7-1.5-0.7-2.7v-5.5h-1.6v-1.4h1.6v-2.4L611,79.9z"/>
		<path class="st34" d="M621.3,93l-0.2-1.3h0c-0.6,0.8-1.7,1.5-3.1,1.5c-2,0-3.1-1.5-3.1-2.9c0-2.5,2.2-3.8,6.1-3.8v-0.2
			c0-0.8-0.2-2.3-2.3-2.3c-1,0-1.9,0.3-2.7,0.8l-0.4-1.2c0.8-0.5,2.1-0.9,3.3-0.9c3.1,0,3.9,2.1,3.9,4.2v3.8c0,0.9,0,1.7,0.2,2.4
			L621.3,93L621.3,93z M621.1,87.8c-2,0-4.3,0.3-4.3,2.3c0,1.2,0.8,1.8,1.7,1.8c1.3,0,2.2-0.8,2.5-1.7c0.1-0.2,0.1-0.4,0.1-0.6
			L621.1,87.8L621.1,87.8z"/>
		<path class="st34" d="M625.8,85.6c0-1.1,0-1.9-0.1-2.7h1.6l0.1,1.7h0c0.5-0.9,1.7-1.9,3.4-1.9c1.4,0,3.6,0.8,3.6,4.3V93h-1.8v-5.8
			c0-1.6-0.6-3-2.3-3c-1.2,0-2.2,0.9-2.5,1.9c-0.1,0.2-0.1,0.6-0.1,0.9V93h-1.8L625.8,85.6L625.8,85.6z"/>
		<path class="st34" d="M639.7,79.9v2.9h2.7v1.4h-2.7v5.5c0,1.3,0.4,2,1.4,2c0.5,0,0.8-0.1,1.1-0.1l0.1,1.4
			c-0.4,0.1-0.9,0.3-1.7,0.3c-0.8,0-1.5-0.3-2-0.8c-0.5-0.6-0.7-1.5-0.7-2.7v-5.5h-1.6v-1.4h1.6v-2.4L639.7,79.9z"/>
		<path class="st34" d="M644.5,78.1h1.8V93h-1.8V78.1z"/>
		<path class="st34" d="M650.1,82.8l2.2,6c0.2,0.7,0.5,1.5,0.7,2.1h0c0.2-0.6,0.4-1.4,0.7-2.1l2-6h2l-2.8,7.2
			c-1.3,3.5-2.2,5.3-3.5,6.4c-0.9,0.8-1.8,1.1-2.3,1.2l-0.5-1.5c0.5-0.1,1.1-0.4,1.6-0.9c0.5-0.4,1.1-1.1,1.5-2.1
			c0.1-0.2,0.1-0.3,0.1-0.4c0-0.1,0-0.3-0.1-0.5l-3.7-9.4L650.1,82.8L650.1,82.8z"/>
		<path class="st34" d="M663.6,86.6V88h-5.2v-1.3H663.6z"/>
		<path class="st34" d="M669.9,86.2c0-1.3,0-2.5-0.1-3.4h2.8l0.2,1.4h0c0.8-1.1,1.9-1.7,3.4-1.7c2.3,0,4.3,2,4.3,5.2
			c0,3.8-2.4,5.5-4.7,5.5c-1.2,0-2.2-0.5-2.7-1.2h0v5.1H670L669.9,86.2L669.9,86.2z M673.1,88.6c0,0.2,0,0.5,0.1,0.7
			c0.2,0.9,0.9,1.5,1.9,1.5c1.4,0,2.2-1.2,2.2-2.9c0-1.6-0.7-2.9-2.2-2.9c-0.9,0-1.7,0.7-1.9,1.6c0,0.2-0.1,0.4-0.1,0.6V88.6z"/>
		<path class="st34" d="M685,88.9c0.1,1.3,1.4,2,2.9,2c1.1,0,2-0.2,2.8-0.4l0.4,2.2c-1.1,0.4-2.3,0.6-3.7,0.6c-3.5,0-5.5-2-5.5-5.2
			c0-2.6,1.6-5.5,5.2-5.5c3.3,0,4.6,2.6,4.6,5.1c0,0.6-0.1,1-0.1,1.3L685,88.9L685,88.9z M688.7,86.7c0-0.8-0.3-2.1-1.8-2.1
			c-1.3,0-1.9,1.2-2,2.1H688.7z"/>
		<path class="st34" d="M703.7,87.7c0,3.8-2.7,5.5-5.4,5.5c-3,0-5.3-2-5.3-5.3c0-3.3,2.2-5.4,5.5-5.4
			C701.6,82.5,703.7,84.6,703.7,87.7z M696.3,87.8c0,1.8,0.7,3.1,2.1,3.1c1.3,0,2-1.3,2-3.1c0-1.5-0.6-3.1-2-3.1
			C696.9,84.8,696.3,86.3,696.3,87.8z"/>
		<path class="st34" d="M705.7,86.2c0-1.3,0-2.5-0.1-3.4h2.8l0.2,1.4h0c0.8-1.1,1.9-1.7,3.4-1.7c2.3,0,4.3,2,4.3,5.2
			c0,3.8-2.4,5.5-4.7,5.5c-1.2,0-2.2-0.5-2.7-1.2h0v5.1h-3.2L705.7,86.2L705.7,86.2z M708.9,88.6c0,0.2,0,0.5,0.1,0.7
			c0.2,0.9,0.9,1.5,1.9,1.5c1.4,0,2.2-1.2,2.2-2.9c0-1.6-0.7-2.9-2.2-2.9c-0.9,0-1.7,0.7-1.9,1.6c0,0.2-0.1,0.4-0.1,0.6V88.6z"/>
		<path class="st34" d="M718.3,78.1h3.2V93h-3.2V78.1z"/>
		<path class="st34" d="M726.5,88.9c0.1,1.3,1.4,2,2.9,2c1.1,0,2-0.2,2.8-0.4l0.4,2.2c-1.1,0.4-2.3,0.6-3.7,0.6
			c-3.5,0-5.5-2-5.5-5.2c0-2.6,1.6-5.5,5.2-5.5c3.3,0,4.6,2.6,4.6,5.1c0,0.6-0.1,1-0.1,1.3L726.5,88.9L726.5,88.9z M730.3,86.7
			c0-0.8-0.3-2.1-1.8-2.1c-1.3,0-1.9,1.2-2,2.1H730.3z"/>
		<path class="st34" d="M734.9,91.9c0-0.8,0.5-1.3,1.3-1.3c0.7,0,1.2,0.6,1.2,1.3c0,0.7-0.5,1.3-1.3,1.3
			C735.5,93.2,734.9,92.6,734.9,91.9z"/>
	</g>
</g>
</svg>
